<svg height="375pt" viewBox="-42 0 375 375.20603" width="375pt" xmlns="http://www.w3.org/2000/svg"><path d="m221.359375 268.9375v-268.9375l-132.589844 93.207031zm0 0"/><path d="m34.101562 260.921875h41.648438c2.113281 0 4.066406 1.109375 5.152344 2.921875l140.457031 98.738281v-60.4375l-151.265625-200.484375h-35.992188c-18.765624.019532-33.976562 15.230469-34 34v91.261719c.023438 18.769531 15.234376 33.980469 34 34zm0 0"/><path d="m15.273438 2.445312c-1.996094-2.644531-5.757813-3.171874-8.402344-1.175781-2.644532 1.996094-3.171875 5.757813-1.175782 8.402344l274 363.148437c1.996094 2.644532 5.757813 3.171876 8.402344 1.175782 2.644532-1.996094 3.171875-5.757813 1.175782-8.402344zm0 0"/></svg>