<?xml version="1.0" encoding="UTF-8" standalone="no"?>
<svg
   xmlns:dc="http://purl.org/dc/elements/1.1/"
   xmlns:cc="http://creativecommons.org/ns#"
   xmlns:rdf="http://www.w3.org/1999/02/22-rdf-syntax-ns#"
   xmlns:svg="http://www.w3.org/2000/svg"
   xmlns="http://www.w3.org/2000/svg"
   xmlns:sodipodi="http://sodipodi.sourceforge.net/DTD/sodipodi-0.dtd"
   xmlns:inkscape="http://www.inkscape.org/namespaces/inkscape"
   viewBox="0 0 50 30"
   version="1.1"
   id="svg13"
   sodipodi:docname="amex.svg"
   inkscape:version="0.92.4 (33fec40, 2019-01-16)"
   width="50"
   height="30">
  <metadata
     id="metadata19">
    <rdf:RDF>
      <cc:Work
         rdf:about="">
        <dc:format>image/svg+xml</dc:format>
        <dc:type
           rdf:resource="http://purl.org/dc/dcmitype/StillImage" />
        <dc:title>amex</dc:title>
      </cc:Work>
    </rdf:RDF>
  </metadata>
  <defs
     id="defs17" />
  <sodipodi:namedview
     pagecolor="#ffffff"
     bordercolor="#666666"
     borderopacity="1"
     objecttolerance="10"
     gridtolerance="10"
     guidetolerance="10"
     inkscape:pageopacity="0"
     inkscape:pageshadow="2"
     inkscape:window-width="1440"
     inkscape:window-height="845"
     id="namedview15"
     showgrid="false"
     inkscape:zoom="20.477812"
     inkscape:cx="30.098687"
     inkscape:cy="13.778625"
     inkscape:window-x="1920"
     inkscape:window-y="207"
     inkscape:window-maximized="1"
     inkscape:current-layer="Symbols"
     fit-margin-top="0"
     fit-margin-left="0"
     fit-margin-right="0"
     fit-margin-bottom="0" />
  <!-- Generator: Sketch 54.1 (76490) - https://sketchapp.com -->
  <title
     id="title2">amex</title>
  <desc
     id="desc4" />
  <g
     id="Symbols"
     style="fill:none;fill-rule:evenodd;stroke:none;stroke-width:1">
    <g
       id="UI/Component/Desktop/Footer"
       transform="translate(-1218,-402)">
      <g
         id="Payment"
         transform="translate(1098,402)">
        <g
           id="AmericanExpress-light-Copy-2"
           transform="translate(120)">
          <rect
             id="Rectangle"
             x="0"
             y="0"
             width="50"
             height="30"
             rx="2"
             style="fill:#ffffff" />
          <path
             d="M 42.203681,17.332791 H 40.43716 c -0.17637,0 -0.293543,0.0066 -0.392247,0.07304 -0.102251,0.06548 -0.141635,0.16267 -0.141635,0.290953 0,0.15255 0.08635,0.256322 0.211963,0.301197 0.102251,0.03549 0.212085,0.04585 0.373534,0.04585 l 0.525321,0.01402 c 0.53009,0.01305 0.883932,0.103895 1.099687,0.325463 0.03926,0.03085 0.06287,0.06548 0.0899,0.100115 z m 0,2.666017 c -0.235447,0.343267 -0.694231,0.517278 -1.31532,0.517278 h -1.871829 v -0.867129 h 1.864246 c 0.184932,0 0.314336,-0.02427 0.392247,-0.100114 0.06752,-0.06256 0.114605,-0.153403 0.114605,-0.263761 0,-0.117796 -0.04709,-0.211325 -0.118396,-0.267419 -0.07033,-0.0617 -0.172702,-0.08975 -0.341489,-0.08975 -0.910107,-0.03085 -2.045509,0.02805 -2.045509,-1.251612 0,-0.586541 0.373534,-1.203933 1.390662,-1.203933 h 1.93066 v -0.804573 h -1.793795 c -0.541343,0 -0.934569,0.129259 -1.213069,0.330219 v -0.330219 h -2.653266 c -0.424293,0 -0.922339,0.10487 -1.157907,0.330219 v -0.330219 h -4.738037 v 0.330219 c -0.377081,-0.271199 -1.013337,-0.330219 -1.307003,-0.330219 h -3.12526 v 0.330219 C 25.916908,15.709988 25.253499,15.667796 24.849143,15.667796 H 21.35145 l -0.800396,0.863593 -0.749637,-0.863593 h -5.224829 v 5.642498 h 5.126492 l 0.824735,-0.87725 0.776912,0.87725 3.159996,0.0028 v -1.327338 h 0.310667 c 0.419278,0.0065 0.913777,-0.01037 1.350056,-0.1984 v 1.522811 h 2.606422 v -1.47062 h 0.125734 c 0.160471,0 0.176248,0.0066 0.176248,0.166451 v 1.304047 h 7.917848 c 0.502693,0 1.028136,-0.128283 1.319111,-0.36107 v 0.36107 h 2.511509 c 0.52263,0 1.033029,-0.07304 1.421363,-0.260102 v -1.05114 z m -3.866336,-1.615487 c 0.188725,0.194742 0.289875,0.440577 0.289875,0.856765 0,0.869933 -0.545135,1.276 -1.522635,1.276 h -1.887852 v -0.867129 h 1.880269 c 0.183831,0 0.314214,-0.02427 0.395917,-0.100114 0.06666,-0.06256 0.114482,-0.153403 0.114482,-0.263761 0,-0.117796 -0.05174,-0.211325 -0.118274,-0.267419 -0.07412,-0.0617 -0.176371,-0.08975 -0.345158,-0.08975 -0.906438,-0.03085 -2.041595,0.02805 -2.041595,-1.251612 0,-0.586541 0.36962,-1.203933 1.38577,-1.203933 h 1.943136 v 0.860666 h -1.778018 c -0.176249,0 -0.290853,0.0066 -0.388334,0.07304 -0.106165,0.06548 -0.145548,0.16267 -0.145548,0.290953 0,0.152549 0.09014,0.256322 0.212085,0.301197 0.102251,0.03549 0.212085,0.04585 0.377203,0.04585 l 0.521774,0.01402 c 0.526177,0.0128 0.887357,0.103529 1.106903,0.325219 z m -8.746129,-0.249737 c -0.129648,0.0767 -0.289996,0.08329 -0.478598,0.08329 H 27.935142 V 17.30865 h 1.193499 c 0.172579,0 0.34528,0.0037 0.462575,0.07304 0.125612,0.06548 0.200711,0.190717 0.200711,0.363753 0,0.173036 -0.0751,0.312415 -0.200711,0.388141 z m 0.585375,0.503255 c 0.215754,0.07938 0.392125,0.22169 0.474807,0.339486 0.136864,0.197424 0.156678,0.381678 0.160592,0.738115 v 0.801646 h -0.973096 v -0.505937 c 0,-0.243274 0.02348,-0.603491 -0.156679,-0.791525 -0.141635,-0.144867 -0.357512,-0.179499 -0.711109,-0.179499 h -1.035842 v 1.476961 h -0.973953 v -4.043839 h 2.23778 c 0.490707,0 0.848096,0.02158 1.166224,0.190839 0.305897,0.184255 0.49829,0.436674 0.49829,0.897981 -1.22e-4,0.645439 -0.431876,0.974804 -0.687014,1.075772 z m 1.224443,-2.164592 h 3.234972 v 0.836278 h -2.269703 v 0.735188 H 34.5806 v 0.825059 h -2.214297 v 0.804573 l 2.269703,0.0037 v 0.839082 h -3.234972 v -4.043839 z m -6.539538,1.8662 h -1.252574 v -1.0298 h 1.263827 c 0.349928,0 0.592835,0.142184 0.592835,0.495816 0,0.349729 -0.231654,0.533984 -0.604088,0.533984 z M 22.64353,20.148309 21.155387,18.501117 22.64353,16.906239 Z M 18.800434,19.673345 H 16.41735 v -0.804573 h 2.127946 V 18.043713 H 16.41735 v -0.735188 h 2.430051 l 1.060181,1.178447 z m 7.705762,-1.868882 c 0,1.123329 -0.840635,1.355263 -1.687875,1.355263 h -1.209399 v 1.35636 h -1.883938 l -1.193499,-1.338679 -1.240344,1.338679 h -3.839305 v -4.043839 h 3.898381 l 1.19252,1.325509 1.232883,-1.325509 h 3.097129 c 0.769206,0 1.633447,0.212301 1.633447,1.332216 z"
             id="EXPRESS"
             style="fill:#7f7f7f;fill-opacity:1"
             inkscape:connector-curvature="0" />
          <path
             d="M 10.827425,11.812114 10.164017,10.200407 9.5044,11.812114 Z m 14.614798,-0.641781 c -0.133195,0.0806 -0.29073,0.08329 -0.479454,0.08329 h -1.177477 v -0.89798 h 1.193499 c 0.16891,0 0.345159,0.0076 0.459641,0.07292 0.125734,0.0589 0.203523,0.184255 0.203523,0.357412 0,0.176694 -0.074,0.318878 -0.199732,0.384361 z m 8.399993,0.641781 -0.670747,-1.611707 -0.667078,1.611707 z M 18.184115,13.556615 H 17.19047 l -0.0037,-3.166345 -1.405462,3.166345 h -0.851032 l -1.409131,-3.169149 v 3.169149 H 11.549787 L 11.177354,12.654854 H 9.1592418 l -0.376225,0.901761 H 7.7302964 L 9.4659948,9.5137517 H 10.90607 L 12.554562,13.34151 V 9.5137517 h 1.581955 l 1.268475,2.7425963 1.165245,-2.7425963 h 1.613756 v 4.0428633 z m 3.960269,0 H 18.906477 V 9.5137517 h 3.237907 v 0.8418873 h -2.268602 v 0.728725 h 2.214174 v 0.828718 h -2.214174 v 0.807377 h 2.268602 z m 4.565336,-2.954044 c 0,0.644585 -0.431509,0.977609 -0.682978,1.077601 0.212085,0.08048 0.393226,0.222666 0.479454,0.340462 0.136865,0.201083 0.160471,0.380703 0.160471,0.741773 v 0.794208 h -0.977623 l -0.0037,-0.509839 c 0,-0.243274 0.02336,-0.593126 -0.153009,-0.787623 -0.141635,-0.142185 -0.357512,-0.173036 -0.706462,-0.173036 h -1.040489 v 1.470498 H 22.816232 V 9.5137517 h 2.229341 c 0.495354,0 0.860327,0.013048 1.173684,0.1936438 0.306631,0.180596 0.490463,0.4442345 0.490463,0.8951755 z m 1.551133,2.954044 H 27.271855 V 9.5137517 h 0.988998 z m 11.473637,0 h -1.373539 l -1.837215,-3.034403 v 3.034403 h -1.973958 l -0.377203,-0.901761 h -2.013464 l -0.365951,0.901761 h -1.134179 c -0.471138,0 -1.067642,-0.103894 -1.405462,-0.447161 -0.340633,-0.343267 -0.51786,-0.808231 -0.51786,-1.543419 0,-0.599589 0.105921,-1.147718 0.522508,-1.5808558 0.313357,-0.3226584 0.804064,-0.4714275 1.471998,-0.4714275 h 0.938361 v 0.8662753 h -0.918669 c -0.35372,0 -0.553452,0.05243 -0.745845,0.239494 -0.165241,0.170231 -0.278622,0.492036 -0.278622,0.915784 0,0.433138 0.08635,0.745432 0.266513,0.94944 0.149218,0.159988 0.420379,0.208521 0.675517,0.208521 h 0.435301 l 1.366078,-3.1793924 h 1.452307 l 1.64103,3.8239774 V 9.5138736 h 1.47579 l 1.703776,2.8156394 V 9.5138736 H 39.73449 Z M 7.7190439,14.350701 h 1.6560747 l 0.3734118,-0.89798 h 0.8359876 l 0.372433,0.89798 h 3.258456 v -0.686533 l 0.290852,0.68946 h 1.691545 l 0.290853,-0.699703 v 0.696776 h 8.097887 l -0.0038,-1.474034 h 0.156679 c 0.109712,0.0038 0.141757,0.0139 0.141757,0.194497 v 1.279537 h 4.188255 v -0.343144 c 0.337819,0.180474 0.863262,0.343144 1.55468,0.343144 h 1.761995 l 0.377081,-0.89798 h 0.835987 l 0.368764,0.89798 h 3.395443 v -0.852984 l 0.51419,0.852984 h 2.720904 V 8.7121053 h -2.692773 v 0.665925 l -0.377081,-0.665925 h -2.763101 v 0.665925 L 34.419273,8.7121053 H 30.68699 c -0.624759,0 -1.17393,0.086945 -1.617547,0.3292432 V 8.7121053 h -2.5756 V 9.0413485 C 26.211552,8.7916114 25.826888,8.7121053 25.39917,8.7121053 H 15.98951 L 15.358147,10.168458 14.709783,8.7121053 h -2.963811 v 0.665925 L 11.420383,8.7121053 H 8.8927287 L 7.7189216,11.392999 v 2.957702 z"
             id="AMERICAN"
             style="fill:#7f7f7f;fill-opacity:1"
             inkscape:connector-curvature="0" />
        </g>
      </g>
    </g>
  </g>
</svg>
