<?xml version="1.0"?>
<svg xmlns="http://www.w3.org/2000/svg" xmlns:xlink="http://www.w3.org/1999/xlink" xmlns:svgjs="http://svgjs.com/svgjs" version="1.1" width="512" height="512" x="0" y="0" viewBox="0 0 32 32" style="enable-background:new 0 0 512 512" xml:space="preserve" class=""><g>
<g xmlns="http://www.w3.org/2000/svg">
	<path d="M16,0C7.164,0,0,7.164,0,16c0,8.838,7.164,16,16,16s16-7.162,16-16C32,7.164,24.836,0,16,0z M17.652,19.562   c-0.992,0-1.926-0.535-2.247-1.146c0,0-0.534,2.117-0.646,2.524c-0.398,1.444-1.569,2.892-1.659,3.009   c-0.063,0.082-0.204,0.057-0.219-0.054c-0.025-0.186-0.324-2.006,0.027-3.491c0.177-0.746,1.183-5.009,1.183-5.009   s-0.294-0.586-0.294-1.453c0-1.362,0.79-2.379,1.773-2.379c0.836,0,1.24,0.627,1.24,1.379c0,0.841-0.535,2.099-0.812,3.263   c-0.23,0.976,0.488,1.771,1.45,1.771c1.739,0,2.913-2.236,2.913-4.888c0-2.014-1.355-3.521-3.823-3.521   c-2.787,0-4.524,2.08-4.524,4.402c0,0.801,0.236,1.365,0.606,1.801c0.17,0.201,0.193,0.284,0.132,0.514   c-0.045,0.168-0.145,0.576-0.188,0.736c-0.061,0.233-0.25,0.315-0.46,0.229c-1.284-0.522-1.882-1.93-1.882-3.512   c0-2.609,2.201-5.74,6.568-5.74c3.509,0,5.817,2.539,5.817,5.266C22.611,16.869,20.607,19.562,17.652,19.562z" fill="#55565a" data-original="#000000" style="" class=""/>
</g>
<g xmlns="http://www.w3.org/2000/svg">
</g>
<g xmlns="http://www.w3.org/2000/svg">
</g>
<g xmlns="http://www.w3.org/2000/svg">
</g>
<g xmlns="http://www.w3.org/2000/svg">
</g>
<g xmlns="http://www.w3.org/2000/svg">
</g>
<g xmlns="http://www.w3.org/2000/svg">
</g>
<g xmlns="http://www.w3.org/2000/svg">
</g>
<g xmlns="http://www.w3.org/2000/svg">
</g>
<g xmlns="http://www.w3.org/2000/svg">
</g>
<g xmlns="http://www.w3.org/2000/svg">
</g>
<g xmlns="http://www.w3.org/2000/svg">
</g>
<g xmlns="http://www.w3.org/2000/svg">
</g>
<g xmlns="http://www.w3.org/2000/svg">
</g>
<g xmlns="http://www.w3.org/2000/svg">
</g>
<g xmlns="http://www.w3.org/2000/svg">
</g>
</g></svg>
