<?xml version="1.0" encoding="UTF-8" standalone="no"?>
<svg
   xmlns:dc="http://purl.org/dc/elements/1.1/"
   xmlns:cc="http://creativecommons.org/ns#"
   xmlns:rdf="http://www.w3.org/1999/02/22-rdf-syntax-ns#"
   xmlns:svg="http://www.w3.org/2000/svg"
   xmlns="http://www.w3.org/2000/svg"
   xmlns:xlink="http://www.w3.org/1999/xlink"
   xmlns:sodipodi="http://sodipodi.sourceforge.net/DTD/sodipodi-0.dtd"
   xmlns:inkscape="http://www.inkscape.org/namespaces/inkscape"
   viewBox="0 0 49.8325 29.043386"
   version="1.1"
   id="svg23"
   sodipodi:docname="mastercard.svg"
   inkscape:version="0.92.4 (33fec40, 2019-01-16)"
   width="49.8325"
   height="29.043386">
  <metadata
     id="metadata27">
    <rdf:RDF>
      <cc:Work
         rdf:about="">
        <dc:format>image/svg+xml</dc:format>
        <dc:type
           rdf:resource="http://purl.org/dc/dcmitype/StillImage" />
        <dc:title>mastercard</dc:title>
      </cc:Work>
    </rdf:RDF>
  </metadata>
  <sodipodi:namedview
     pagecolor="#ffffff"
     bordercolor="#666666"
     borderopacity="1"
     objecttolerance="10"
     gridtolerance="10"
     guidetolerance="10"
     inkscape:pageopacity="0"
     inkscape:pageshadow="2"
     inkscape:window-width="1257"
     inkscape:window-height="787"
     id="namedview25"
     showgrid="false"
     inkscape:zoom="7.24"
     inkscape:cx="17.748919"
     inkscape:cy="14.527597"
     inkscape:window-x="0"
     inkscape:window-y="27"
     inkscape:window-maximized="0"
     inkscape:current-layer="svg23"
     fit-margin-top="0"
     fit-margin-left="0"
     fit-margin-right="0"
     fit-margin-bottom="0" />
  <!-- Generator: Sketch 54.1 (76490) - https://sketchapp.com -->
  <title
     id="title2">mastercard</title>
  <desc
     id="desc4" />
  <defs
     id="defs7">
    <polygon
       id="path-1"
       points="49.832,0.47274194 49.832,29.516129 0,29.516129 0,0.47274194 " />
  </defs>
  <g
     id="Symbols"
     style="fill:none;fill-rule:evenodd;stroke:none;stroke-width:1"
     transform="translate(3e-4,-0.48420993)">
    <g
       id="UI/Component/Desktop/Footer"
       transform="translate(-1158,-402)">
      <g
         id="Payment"
         transform="translate(1098,402)">
        <g
           id="Mastercard"
           transform="translate(60)">
          <g
             id="Group-3"
             transform="translate(0,0.011468)">
            <mask
               id="mask-2"
               fill="white">
              <use
                 xlink:href="#path-1"
                 id="use9"
                 x="0"
                 y="0"
                 width="100%"
                 height="100%" />
            </mask>
            <g
               id="Clip-2" />
            <path
               d="M 47.9582,29.516129 H 1.8742 c -1.035,0 -1.8745,-0.811936 -1.8745,-1.813548 V 2.2858065 c 0,-1.001613 0.8395,-1.81306456 1.8745,-1.81306456 h 46.084 c 1.0345,0 1.874,0.81145156 1.874,1.81306456 V 27.702581 c 0,1.001612 -0.8395,1.813548 -1.874,1.813548"
               id="Fill-1"
               mask="url(#mask-2)"
               inkscape:connector-curvature="0"
               style="fill:#ffffff" />
          </g>
          <path
             d="m 17.2292,24.066097 c 0,-0.383226 0.256,-0.698226 0.6755,-0.698226 0.396,0 0.6755,0.292742 0.6755,0.698226 0,0.383226 -0.2795,0.698709 -0.6755,0.698709 -0.4195,-0.02274 -0.6755,-0.315483 -0.6755,-0.698709 z m 1.8165,0 v -1.081452 h -0.489 v 0.27 c -0.163,-0.202742 -0.396,-0.315484 -0.6985,-0.315484 -0.629,0 -1.118,0.473226 -1.118,1.126936 0,0.653709 0.489,1.126935 1.118,1.126935 0.326,0 0.5585,-0.112258 0.6985,-0.315484 v 0.270484 h 0.489 z m 16.3495,0 c 0,-0.383226 0.2565,-0.698226 0.6755,-0.698226 0.396,0 0.675,0.292742 0.675,0.698226 0,0.383226 -0.279,0.698709 -0.675,0.698709 -0.419,-0.02274 -0.6755,-0.315483 -0.6755,-0.698709 z m 1.7935,0 V 22.12771 h -0.4895 v 1.126935 c -0.163,-0.202742 -0.396,-0.315484 -0.6985,-0.315484 -0.629,0 -1.1175,0.473226 -1.1175,1.126936 0,0.653709 0.4885,1.126935 1.1175,1.126935 0.326,0 0.559,-0.112258 0.6985,-0.315484 v 0.270484 h 0.4895 z m -12.134,-0.720968 c 0.3025,0 0.5125,0.18 0.559,0.518226 h -1.165 c 0.047,-0.292742 0.2565,-0.518226 0.606,-0.518226 z m 0,-0.405968 c -0.652,0 -1.118,0.450968 -1.118,1.126936 0,0.675968 0.466,1.126935 1.141,1.126935 0.3265,0 0.6525,-0.09 0.9085,-0.292742 l -0.233,-0.338225 c -0.186,0.135483 -0.4195,0.225483 -0.652,0.225483 -0.303,0 -0.6055,-0.135483 -0.6755,-0.518709 h 1.6535 v -0.18 c 0.0235,-0.69871 -0.396,-1.149678 -1.0245,-1.149678 z m 5.8455,1.126936 c 0,-0.383226 0.256,-0.698226 0.6755,-0.698226 0.3955,0 0.6755,0.292742 0.6755,0.698226 0,0.383226 -0.28,0.698709 -0.6755,0.698709 -0.4195,-0.02274 -0.6755,-0.315483 -0.6755,-0.698709 z m 1.7935,0 v -1.081452 h -0.4895 v 0.27 c -0.1625,-0.202742 -0.3955,-0.315484 -0.698,-0.315484 -0.629,0 -1.1185,0.473226 -1.1185,1.126936 0,0.653709 0.4895,1.126935 1.1185,1.126935 0.3255,0 0.5585,-0.112258 0.698,-0.315484 v 0.270484 h 0.4895 z m -4.518,0 c 0,0.653709 0.4655,1.126935 1.1875,1.126935 0.326,0 0.559,-0.06774 0.792,-0.248226 l -0.233,-0.382741 c -0.186,0.135483 -0.3725,0.202741 -0.582,0.202741 -0.396,0 -0.676,-0.270483 -0.676,-0.698709 0,-0.405484 0.28,-0.675968 0.676,-0.698226 0.2095,0 0.396,0.06726 0.582,0.202742 l 0.233,-0.383226 c -0.233,-0.180484 -0.466,-0.248226 -0.792,-0.248226 -0.722,0 -1.1875,0.473226 -1.1875,1.126936 z m 6.2415,-1.126936 c -0.28,0 -0.466,0.135484 -0.5825,0.315484 v -0.27 h -0.489 v 2.163387 h 0.489 v -1.216935 c 0,-0.360484 0.163,-0.563226 0.466,-0.563226 0.093,0 0.2095,0.02226 0.3025,0.04452 l 0.1395,-0.450484 c -0.0925,-0.02274 -0.2325,-0.02274 -0.3255,-0.02274 z m -12.996,0.225484 c -0.233,-0.157742 -0.5585,-0.225484 -0.908,-0.225484 -0.559,0 -0.9315,0.270484 -0.9315,0.69871 0,0.360484 0.2795,0.563226 0.7685,0.630968 l 0.233,0.02274 c 0.256,0.04548 0.396,0.112742 0.396,0.225483 0,0.157742 -0.187,0.270484 -0.5125,0.270484 -0.3265,0 -0.5825,-0.112742 -0.7455,-0.225483 l -0.233,0.360967 c 0.2565,0.18 0.6055,0.27 0.955,0.27 0.652,0 1.025,-0.292742 1.025,-0.698709 0,-0.382742 -0.303,-0.585968 -0.769,-0.65371 l -0.2325,-0.02226 c -0.21,-0.02274 -0.373,-0.06774 -0.373,-0.203226 0,-0.157742 0.163,-0.247258 0.4195,-0.247258 0.279,0 0.559,0.112258 0.6985,0.18 z m 6.265,-0.225484 c -0.2795,0 -0.466,0.135484 -0.582,0.315484 v -0.27 h -0.4895 v 2.163387 h 0.4895 v -1.216935 c 0,-0.360484 0.163,-0.563226 0.466,-0.563226 0.0925,0 0.2095,0.02226 0.3025,0.04452 l 0.1395,-0.450484 c -0.093,-0.02274 -0.2325,-0.02274 -0.326,-0.02274 z m -4.1455,0.04548 h -0.7915 v -0.65371 h -0.4895 v 0.65371 h -0.4425 v 0.427742 h 0.4425 v 0.991936 c 0,0.495967 0.2095,0.788709 0.7685,0.788709 0.21,0 0.4425,-0.06774 0.606,-0.157742 l -0.14,-0.405484 c -0.14,0.09 -0.303,0.112259 -0.4195,0.112259 -0.2325,0 -0.3255,-0.135001 -0.3255,-0.360484 v -0.969194 h 0.7915 z m -7.243,2.163387 v -1.352419 c 0,-0.518226 -0.326,-0.856452 -0.885,-0.856452 -0.2795,0 -0.5825,0.09 -0.792,0.383226 -0.163,-0.247742 -0.396,-0.383226 -0.7455,-0.383226 -0.2325,0 -0.4655,0.06774 -0.652,0.315484 v -0.27 h -0.489 v 2.163387 h 0.489 v -1.194193 c 0,-0.383226 0.21,-0.56371 0.536,-0.56371 0.326,0 0.489,0.202742 0.489,0.56371 v 1.194193 h 0.489 v -1.194193 c 0,-0.383226 0.233,-0.56371 0.5355,-0.56371 0.326,0 0.489,0.202742 0.489,0.56371 v 1.194193 z"
             id="Fill-4"
             inkscape:connector-curvature="0"
             style="fill:#7f7f7f" />
          <polygon
             id="Fill-6"
             points="28.594,6.5538871 21.258,6.5538871 21.258,19.310661 28.594,19.310661 "
             style="fill:#595959" />
          <path
             d="m 24.91455,6.5536935 c -1.4205,-1.0814516 -3.2135,-1.7356451 -5.17,-1.7356451 -4.635,0 -8.3845,3.6290323 -8.3845,8.1140326 0,4.485 3.7495,8.114032 8.3845,8.114032 1.9565,0 3.7495,-0.65371 5.17,-1.735645 -1.9325,-1.464678 -3.1905,-3.786291 -3.1905,-6.378387 0,-2.591613 1.258,-4.8904842 3.1905,-6.3783875 z"
             id="Fill-8"
             inkscape:connector-curvature="0"
             style="fill:#7f7f7f" />
          <path
             d="m 30.10835,21.046113 c -1.9565,0 -3.75,-0.65371 -5.17,-1.735645 1.956,-1.48742 3.19,-3.786291 3.19,-6.378387 0,-2.591613 -1.257,-4.8904842 -3.19,-6.3783875 1.42,-1.0814516 3.2135,-1.7356451 5.17,-1.7356451 4.6345,0 8.3845,3.6512903 8.3845,8.1140326 0,4.485 -3.75,8.114032 -8.3845,8.114032 z"
             id="Fill-9"
             inkscape:connector-curvature="0"
             style="fill:#bfbfbf" />
        </g>
      </g>
    </g>
  </g>
</svg>
