<svg width="60" height="36" viewBox="0 0 60 36" fill="none" xmlns="http://www.w3.org/2000/svg">
<rect width="60" height="36" rx="2" transform="matrix(1 0 0 -1 0 36)" fill="white"/>
<path fill-rule="evenodd" clip-rule="evenodd" d="M36.8036 14.6972C36.6453 15.731 35.8511 15.731 35.0828 15.731H34.6457L34.9524 13.8009C34.9707 13.6843 35.0719 13.5985 35.1907 13.5985H35.3913C35.9143 13.5985 36.4081 13.5985 36.6628 13.8945C36.8152 14.0716 36.8612 14.3345 36.8036 14.6972ZM36.4693 12H33.5722C33.3739 12 33.2054 12.1433 33.1744 12.3379L32.003 19.7226C31.9798 19.8682 32.0934 20 32.2413 20H33.728C33.8666 20 33.9846 19.8997 34.0063 19.7638L34.3387 17.67C34.3693 17.4754 34.5382 17.3321 34.7361 17.3321H35.6528C37.5612 17.3321 38.6627 16.4142 38.9503 14.5944C39.0799 13.799 38.9556 13.1737 38.5809 12.7359C38.1689 12.2547 37.4386 12 36.4693 12Z" fill="#596E6C"/>
<path fill-rule="evenodd" clip-rule="evenodd" d="M15.8036 14.6972C15.6453 15.731 14.8511 15.731 14.0828 15.731H13.6458L13.9524 13.8009C13.9707 13.6843 14.072 13.5985 14.1907 13.5985H14.3913C14.9143 13.5985 15.4081 13.5985 15.6628 13.8945C15.8152 14.0716 15.8612 14.3345 15.8036 14.6972ZM15.4693 12H12.5722C12.3739 12 12.2054 12.1433 12.1744 12.3379L11.003 19.7226C10.9799 19.8682 11.093 20 11.2413 20H12.6249C12.8229 20 12.9913 19.8567 13.0223 19.6625L13.3387 17.67C13.3693 17.4754 13.5382 17.3321 13.7361 17.3321H14.6528C16.5612 17.3321 17.6627 16.4142 17.9503 14.5944C18.0799 13.799 17.9556 13.1737 17.5809 12.7359C17.1689 12.2547 16.4386 12 15.4693 12Z" fill="#84898F"/>
<path fill-rule="evenodd" clip-rule="evenodd" d="M22.7617 17.0185C22.6238 17.8637 21.9765 18.4312 21.1504 18.4312C20.7365 18.4312 20.4047 18.293 20.1918 18.0317C19.9808 17.7729 19.9012 17.4037 19.9681 16.993C20.0965 16.1551 20.7545 15.5696 21.5679 15.5696C21.9734 15.5696 22.3024 15.709 22.5196 15.9727C22.7383 16.2383 22.8244 16.6095 22.7617 17.0185ZM24.7513 14.1394H23.3237C23.2015 14.1394 23.0973 14.2314 23.0781 14.3569L23.0154 14.7703L22.9159 14.6205C22.6065 14.1557 21.9173 14 21.2292 14C19.6521 14 18.3049 15.2386 18.0427 16.9755C17.9063 17.8422 18.1 18.6702 18.5743 19.2481C19.0098 19.779 19.6314 20 20.3721 20C21.6436 20 22.3485 19.1541 22.3485 19.1541L22.2847 19.5651C22.2609 19.7212 22.3774 19.8626 22.5304 19.8626H23.8157C24.0198 19.8626 24.1932 19.7093 24.2251 19.5006L24.9969 14.4369C25.0207 14.2808 24.9039 14.1394 24.7513 14.1394Z" fill="#84898F"/>
<path fill-rule="evenodd" clip-rule="evenodd" d="M43.7617 17.0185C43.6238 17.8637 42.9765 18.4312 42.1504 18.4312C41.7365 18.4312 41.4047 18.293 41.1918 18.0317C40.9804 17.7729 40.9012 17.4037 40.9681 16.993C41.0965 16.1551 41.7545 15.5696 42.5679 15.5696C42.9734 15.5696 43.3024 15.709 43.5196 15.9727C43.7383 16.2383 43.8244 16.6095 43.7617 17.0185ZM45.7513 14.1394H44.3237C44.2015 14.1394 44.0973 14.2314 44.0781 14.3569L44.0154 14.7703L43.9155 14.6205C43.6065 14.1557 42.9173 14 42.2292 14C40.6521 14 39.3049 15.2386 39.0427 16.9755C38.9063 17.8422 39.1 18.6702 39.5743 19.2481C40.0098 19.779 40.6314 20 41.3721 20C42.6436 20 43.3485 19.1541 43.3485 19.1541L43.2847 19.5651C43.2609 19.7212 43.3774 19.8626 43.5304 19.8626H44.8157C45.0198 19.8626 45.1932 19.7093 45.2251 19.5006L45.9969 14.4369C46.0207 14.2808 45.9039 14.1394 45.7513 14.1394Z" fill="#596E6C"/>
<path fill-rule="evenodd" clip-rule="evenodd" d="M31.7476 14H30.292C30.1528 14 30.0226 14.073 29.9446 14.1951L27.9365 17.3232L27.0857 14.3172C27.0323 14.1291 26.8685 14 26.6829 14H25.2523C25.0796 14 24.9579 14.1798 25.0137 14.3527L26.6163 19.3293L25.1088 21.5793C24.9907 21.7558 25.11 22 25.3147 22H26.7687C26.9064 22 27.0354 21.9286 27.1142 21.809L31.9546 14.4186C32.0705 14.2417 31.9511 14 31.7476 14Z" fill="#84898F"/>
<path fill-rule="evenodd" clip-rule="evenodd" d="M47.1879 12.2027L46.003 19.7226C45.9799 19.8682 46.0927 20 46.2405 20H47.4324C47.6297 20 47.798 19.8567 47.8285 19.6621L48.997 12.2774C49.0201 12.1318 48.9073 12 48.7591 12H47.4257C47.307 12 47.2061 12.0858 47.1879 12.2027Z" fill="#596E6C"/>
</svg>
