<?xml version="1.0"?>
<svg xmlns="http://www.w3.org/2000/svg" xmlns:xlink="http://www.w3.org/1999/xlink" xmlns:svgjs="http://svgjs.com/svgjs" version="1.1" width="512" height="512" x="0" y="0" viewBox="0 0 512 512" style="enable-background:new 0 0 512 512" xml:space="preserve" class=""><g><g xmlns="http://www.w3.org/2000/svg"><path d="m278.995 14.185c-1.517-8.22-8.696-14.185-17.07-14.185h-33.519c-8.396 0-15.579 5.984-17.077 14.23-3.148 17.332-6.15 50.617 6.83 86.037-4.784 3.232-7.826 8.606-7.828 14.66l-.024 81.916c-.001 4.508 1.708 8.615 4.495 11.742l-.082 202.069c-.013 30.805 5.029 61.205 14.987 90.354 5.009 14.666 25.722 14.64 30.731.014 9.984-29.142 15.054-59.536 15.067-90.342l.039-96.569c.002-4.142-3.354-7.501-7.497-7.503h-.003c-4.141 0-7.498 3.356-7.5 7.497l-.039 96.568c-.014 29.15-4.811 57.912-14.257 85.487-.086.251-.288.839-1.174.839h-.001c-.886-.001-1.086-.588-1.172-.84-9.424-27.584-14.195-56.35-14.183-85.5l.079-196.133c16.483.007 14.621-.007 30.786 0l-.026 64.578c-.002 4.142 3.354 7.501 7.497 7.503h.003c4.141 0 7.498-3.356 7.5-7.497l.029-70.499c2.831-3.17 4.504-7.274 4.505-11.739.007-22.22.021-71.668.024-81.917.002-6.104-3.108-11.495-7.826-14.674 12.988-35.445 9.904-68.753 6.706-86.096zm-13.902 182.683c-.001 1.481-1.265 2.674-2.675 2.674h-.001-34.437c-1.411-.001-2.675-1.209-2.674-2.692l.004-12.074h39.786zm.008-27.093h-39.786l.016-54.842c0-1.433 1.195-2.669 2.678-2.669 10.257 0 3.425-.002 34.435.012 1.45 0 2.675 1.226 2.674 2.676zm-7.698-72.51c-23.3 0-20.484 0-24.349-.002-13.175-34.242-9.33-67.334-6.966-80.351.201-1.107 1.177-1.912 2.319-1.912h33.519c1.14 0 2.114.802 2.317 1.906 2.401 13.018 6.331 46.114-6.84 80.359z" fill="#ffffff" data-original="#000000" style="" class=""/><path d="m140.067 4.424c-6.378-7.57-18.68-4.992-21.4 4.525-4.736 16.566-33.302 36.413-33.314 62.443-.006 13.969 5.457 24.245 11.273 31.23-3.099 3.184-5.018 7.522-5.021 12.306-.004 14.458-.02 66.552-.023 81.915-.002 4.509 1.707 8.617 4.495 11.744l-.082 202.066c-.014 30.805 5.028 61.205 14.987 90.356 5.008 14.664 25.723 14.639 30.73.013 9.985-29.141 15.055-59.536 15.067-90.342l.082-202.074c2.9-3.244 4.503-7.364 4.505-11.734.007-22.219.021-71.667.024-81.915.003-4.71-1.837-9.146-5.18-12.492-.001-.001-.003-.003-.004-.004 22.572-31.405 8.579-68.692-16.139-98.037zm1.713 406.251c-.013 29.149-4.81 57.911-14.258 85.486-.086.251-.287.839-1.172.839h-.001c-.887-.001-1.088-.589-1.173-.84-9.424-27.585-14.195-56.351-14.182-85.5l.079-196.133c14.996.006 15.803-.006 30.785 0zm4.587-213.806c0 1.501-1.277 2.673-2.674 2.673h-.001-.001c-.417 0-34.521.081-34.93 0-1.193-.227-2.18-1.388-2.179-2.692l.003-12.074h39.785zm.008-27.094h-39.785l.016-54.84c.001-1.45 1.226-2.674 2.675-2.674h.001l34.402.015c.027.001.054.004.081.006 1.44.027 2.627 1.229 2.627 2.671zm-5.139-72.5c-10.686-.005-17.899-.008-28.973-.013-5.819-5.094-11.916-13.406-11.911-25.862.008-17.875 23.272-35.455 31.115-53.795 15.297 19.31 33.369 52.048 9.769 79.67z" fill="#ffffff" data-original="#000000" style="" class=""/><path d="m416.957 17.256c-10.207-7.427-21.633-12.544-33.961-15.207-4.046-.872-8.04 1.698-8.915 5.748-.874 4.049 1.698 8.04 5.747 8.915 10.274 2.219 19.797 6.483 28.305 12.674 3.53 2.569 4.534 7.308 2.336 11.023l-33.633 56.854c-15.526.006-8.855.007-25.848 0l-33.668-56.913c-2.201-3.721-1.194-8.462 2.341-11.027 8.518-6.18 18.047-10.431 28.324-12.636 4.05-.869 6.629-4.856 5.76-8.906s-4.862-6.629-8.906-5.76c-12.332 2.646-23.767 7.747-33.986 15.161-9.839 7.138-12.608 20.381-6.442 30.805l31.392 53.066c-4.113 3.237-6.768 8.247-6.771 13.875l-.024 81.916c-.001 4.508 1.708 8.616 4.496 11.743l-.083 202.068c-.013 30.805 5.029 61.205 14.987 90.354 5.009 14.666 25.722 14.64 30.731.014 9.984-29.138 15.054-59.533 15.067-90.342l.082-202.068c3.005-3.365 4.502-7.543 4.505-11.74.007-22.22.021-71.668.024-81.917.002-5.643-2.665-10.666-6.795-13.906l31.356-53.005c6.159-10.408 3.398-23.645-6.421-30.789zm-37.751 393.418c-.014 29.153-4.811 57.915-14.257 85.487-.086.251-.288.839-1.174.839h-.001c-.886-.001-1.086-.588-1.172-.84-9.424-27.584-14.195-56.35-14.183-85.5l.08-196.133c16.483.007 14.621-.007 30.785 0zm4.586-213.806c-.001 1.488-1.272 2.674-2.674 2.674h-.001-.001-34.436c-1.418-.001-2.675-1.216-2.674-2.692l.004-12.074h39.786zm.009-27.093h-39.786l.016-54.84c.001-1.45 1.226-2.674 2.674-2.674h.002c40.251.018 31.703.014 34.438.015 1.449 0 2.674 1.226 2.673 2.676z" fill="#ffffff" data-original="#000000" style="" class=""/></g></g></svg>
