<svg height="511pt" viewBox="1 -79 511.999 511" width="511pt" xmlns="http://www.w3.org/2000/svg"><path d="m397.242188 353.601562h97.101562c9.75 0 17.65625-7.902343 17.65625-17.652343v-317.792969c0-9.753906-7.90625-17.65625-17.65625-17.65625h-476.6875c-9.753906 0-17.65625 7.90625-17.65625 17.65625v317.792969c0 9.75 7.902344 17.652343 17.65625 17.652343zm0 0" fill="#285680"/><g fill="#f3d55b"><path d="m256 53.464844 6.691406 13.558594 14.960938 2.179687-10.820313 10.550781 2.550781 14.910156-13.382812-7.035156-13.382812 7.035156 2.550781-14.910156-10.820313-10.550781 14.960938-2.179687zm0 0"/><path d="m256 259.441406 6.691406 13.566406 14.960938 2.171876-10.820313 10.558593 2.550781 14.898438-13.382812-7.035157-13.382812 7.035157 2.550781-14.898438-10.820313-10.558593 14.960938-2.171876zm0 0"/><path d="m206.230469 67.535156 6.691406 13.558594 14.960937 2.171875-10.828124 10.558594 2.558593 14.910156-13.382812-7.042969-13.390625 7.042969 2.558594-14.910156-10.832032-10.558594 14.964844-2.171875zm0 0"/><path d="m309.214844 245.914062 6.6875 13.558594 14.972656 2.183594-10.832031 10.546875 2.550781 14.910156-13.378906-7.035156-13.386719 7.035156 2.5625-14.910156-10.832031-10.546875 14.960937-2.183594zm0 0"/><path d="m168.78125 102.238281 6.703125 13.558594 14.960937 2.171875-10.832031 10.558594 2.5625 14.910156-13.394531-7.046875-13.378906 7.046875 2.558594-14.910156-10.832032-10.558594 14.964844-2.171875zm0 0"/><path d="m347.171875 205.230469 6.691406 13.558593 14.960938 2.171876-10.832031 10.554687 2.5625 14.902344-13.382813-7.035157-13.390625 7.035157 2.558594-14.902344-10.832032-10.554687 14.972657-2.171876zm0 0"/><path d="m153.007812 156.457031 6.691407 13.558594 14.972656 2.171875-10.832031 10.558594 2.558594 14.902344-13.390626-7.039063-13.382812 7.039063 2.5625-14.902344-10.832031-10.558594 14.960937-2.171875zm0 0"/><path d="m358.992188 156.457031 6.691406 13.558594 14.960937 2.171875-10.832031 10.558594 2.5625 14.902344-13.382812-7.039063-13.390626 7.039063 2.558594-14.902344-10.832031-10.558594 14.972656-2.171875zm0 0"/><path d="m171.519531 204.523438 6.699219 13.558593 14.964844 2.171875-10.832032 10.558594 2.558594 14.910156-13.390625-7.046875-13.382812 7.046875 2.558593-14.910156-10.828124-10.558594 14.960937-2.171875zm0 0"/><path d="m349.90625 101.53125 6.691406 13.558594 14.964844 2.183594-10.832031 10.554687 2.558593 14.902344-13.382812-7.035157-13.390625 7.035157 2.558594-14.902344-10.828125-10.554687 14.972656-2.183594zm0 0"/><path d="m203.484375 239.222656 6.699219 13.5625 14.964844 2.179688-10.832032 10.546875 2.558594 14.910156-13.390625-7.035156-13.382813 7.035156 2.558594-14.910156-10.828125-10.546875 14.960938-2.179688zm0 0"/><path d="m306.476562 60.84375 6.691407 13.5625 14.972656 2.167969-10.832031 10.558593 2.550781 14.902344-13.382813-7.035156-13.382812 7.035156 2.550781-14.902344-10.824219-10.558593 14.964844-2.167969zm0 0"/></g></svg>