<svg width="182.75" height="70" xmlns="http://www.w3.org/2000/svg">
 <!-- Created with Method Draw - http://github.com/duopixel/Method-Draw/ -->
 <g>
  <title>background</title>
  <rect fill="#fff" id="canvas_background" height="72" width="184.75" y="-1" x="-1"/>
 </g>
 <g>
  <title>Layer 1</title>
  <path stroke="null" id="svg_3" d="m3.504,45.289c0,-0.453 0.754,-0.756 0.754,-0.756l5.887,-4.074s0.151,-0.303 0.302,-0.152c0.151,0 0.302,0.152 0.302,0.152l0.604,0.754l0,0.15c0,0.15 -0.15,0.15 -0.15,0.15l-0.906,0.756s-0.151,0.15 -0.151,0.453c0,0.301 0.151,0.453 0.151,0.453l7.848,7.094l-1.208,-6.793l-2.264,-2.264s-0.604,-0.453 -0.754,-0.604c-0.755,0 -1.358,0.15 -1.358,0.15s-0.302,0.152 -0.453,0.152l-0.302,-0.303l-0.302,-0.453s-0.151,-0.15 -0.151,-0.453l0.302,-0.301l6.188,-3.774s0.453,-0.302 0.604,-0.151c0.151,0 0.302,0.151 0.302,0.151l0.453,0.604s0.15,0.151 0.15,0.302l-0.15,0.151l-1.057,0.905s-0.151,0.151 -0.151,0.453s0.302,0.453 0.302,0.453l7.848,7.094l-1.66,-7.848s-0.151,-1.358 -0.754,-1.962c-0.604,-0.604 -1.358,-0.604 -1.509,-0.453c-0.151,0 -0.906,0.302 -0.906,0.302s-0.302,0.151 -0.453,0c-0.151,0 -0.302,-0.151 -0.302,-0.151l-0.302,-0.453s-0.151,-0.151 -0.151,-0.604c0.151,-0.151 0.604,-0.453 0.604,-0.453l5.132,-2.717s0.453,-0.302 0.604,-0.151c0.302,0 0.453,0.453 0.453,0.453s0.151,0.302 0.151,0.453c0,0.302 -0.151,0.453 -0.151,0.453s-0.905,0.906 -1.057,1.66c-0.151,0.755 0.302,2.566 0.302,2.566l3.17,15.092l0,0.303c0,0.151 -0.302,0.301 -0.302,0.301l-0.755,0.604s-0.302,0.152 -0.604,0c-0.151,0 -0.453,-0.301 -0.453,-0.301l-7.999,-7.244l1.962,11.318l0,0.303c0,0.151 -0.302,0.303 -0.302,0.303l-0.604,0.451l-0.302,0c-0.151,0 -0.453,-0.15 -0.453,-0.15l-12.376,-11.471s-0.604,-0.604 -1.208,-0.453c-0.453,0 -1.057,0.303 -1.057,0.303s-0.302,0.15 -0.453,0l-0.302,0s-0.452,-0.452 -0.603,-0.753zm24.149,-14.49l0.302,0.302s0,0.151 0.151,0.151c0.302,0 0.754,-0.302 0.754,-0.302s0.151,0 0.453,-0.151c0.302,0 0.453,0.453 0.453,0.453l3.471,7.848l0,0.453c0,0.303 -0.453,0.453 -0.453,0.453l-0.453,0.301s-0.151,0.152 -0.151,0.303c-0.15,0.15 0,0.303 0,0.303l0.151,0.301s0.151,0.15 0.302,0.15s0.302,-0.15 0.302,-0.15l4.528,-2.113s0.302,-0.151 0.302,-0.301l0,-0.151l-0.151,-0.302s-0.151,-0.151 -0.302,-0.151c-0.151,-0.151 -0.453,0 -0.453,0l-0.302,0.151s-0.302,0.151 -0.452,0.151c-0.302,0 -0.453,-0.453 -0.453,-0.453l-3.32,-7.547s-0.151,-0.302 -0.151,-0.603c0,-0.302 0.453,-0.604 0.453,-0.604l0.453,-0.302l0.151,-0.151l0,-0.301l-0.302,-0.453l-0.151,0c-0.151,-0.151 -0.302,0 -0.302,0l-4.528,2.113l-0.302,0.151l0,0.451zm6.64,-3.17l0.302,0.453s0,0.151 0.151,0.151l0.15,0s0.302,-0.151 0.906,0c0.754,0.151 0.906,1.057 0.906,1.057l2.415,6.037s0.302,0.905 0.151,1.358s-0.453,0.604 -0.453,0.604l-0.301,0.301s-0.151,0.151 -0.151,0.302c-0.151,0 0,0.151 0,0.151l0.151,0.453s0.151,0 0.302,0.151c0.151,0 0.302,-0.151 0.302,-0.151l3.321,-1.358s0.151,0 0.302,-0.151l0,-0.302l-0.151,-0.302l-0.151,-0.151l-0.453,0s-0.453,0.151 -0.905,0c-0.604,-0.302 -0.906,-1.207 -0.906,-1.207l-2.113,-5.584l8.905,5.584s0.151,0.151 0.302,0.151c0.151,0.151 0.302,0 0.302,0l0.453,-0.151s0.302,-0.151 0.302,-0.302s-0.151,-0.302 -0.151,-0.302l-3.019,-8.15s-0.302,-0.604 -0.151,-1.358c0,-0.453 0.453,-0.755 0.453,-0.755s0.15,-0.151 0.302,-0.151l0,-0.302l-0.302,-0.604l-0.604,0l-2.868,1.208l-0.302,0.302c-0.151,0.151 0,0.302 0,0.302l0.151,0.453l0.453,0s0.604,-0.151 1.057,0.151c0.453,0.151 0.755,1.057 0.755,1.057l1.66,4.377l-7.396,-4.679s-0.453,-0.151 -0.604,-0.302c-0.151,0 -0.604,0.15 -0.604,0.15l-2.566,1.057s-0.302,0.151 -0.302,0.301l0,0.151l-0.001,0zm15.546,6.339c0,0.302 0.15,0.302 0.452,0.302c0.302,0 0.604,-0.604 0.755,-0.754l0.302,-0.302c0.302,0 1.057,0.453 3.019,0.151c1.962,-0.302 3.169,-2.264 3.321,-3.924c0,-1.66 -0.754,-2.717 -1.811,-3.321c-1.358,-0.905 -3.472,-0.452 -4.377,-0.452c-0.906,0 -2.415,-0.151 -2.415,-1.51c0,-1.207 1.207,-1.811 2.264,-1.811c0.906,-0.151 1.51,0.302 1.812,0.604c0.453,0.151 1.509,1.509 1.66,1.66c0.151,0.302 0.453,0.453 0.755,0.302c0.452,-0.302 0.302,-0.755 0.302,-0.755l-1.208,-3.622s0,-0.151 -0.15,-0.302c-0.151,0 -0.302,0.302 -0.453,0.453c0,0.452 -0.453,0.604 -0.453,0.754c-0.151,0 -0.302,-0.151 -0.453,-0.151c-0.302,0 -1.51,-0.604 -3.472,0.151c-1.811,0.905 -2.415,2.868 -2.264,4.075c0.151,1.057 0.905,2.566 2.415,3.17c1.509,0.452 3.019,0.15 3.471,0.15c0.453,-0.15 2.415,-0.15 2.566,1.51c0.15,1.66 -2.264,2.415 -3.773,1.66c-1.66,-0.906 -1.962,-1.66 -2.113,-1.812c-0.15,0 -0.302,-0.754 -1.056,-0.604c-0.604,0.151 -0.151,0.905 -0.151,0.905s0.904,3.322 1.055,3.473zm8.15,-8.15c0.604,3.773 3.924,5.584 6.943,5.131c2.717,-0.604 5.282,-3.472 4.226,-7.697c-1.057,-4.226 -4.528,-5.434 -6.792,-4.83c-2.113,0.453 -5.131,2.717 -4.377,7.396zm4.528,-6.339c1.66,-0.453 3.019,1.057 3.773,4.679c0.754,3.924 -0.302,5.434 -1.661,5.736c-1.358,0.301 -3.019,-1.208 -3.773,-4.83c-0.754,-3.925 0.303,-5.283 1.661,-5.585zm6.339,-1.811l0.151,0.453l0,0.302l0.905,0s0.453,0 0.604,0.151c0.151,0 0.151,0.755 0.151,0.755l0.905,8.149s0,0.604 -0.302,0.755c0,0.151 -0.755,0.302 -0.755,0.302s-0.151,0 -0.302,0.151c-0.151,0 -0.151,0.15 -0.151,0.15l0,0.453l0.151,0.151c0.151,0.151 0.604,0.151 0.604,0.151l4.528,-0.453s0.302,-0.15 0.453,-0.15l0.151,-0.151l0,-0.453s0,-0.151 -0.151,-0.302c0,-0.151 -0.453,0 -0.453,0l-0.302,0s-0.302,0 -0.604,-0.151s-0.151,-0.906 -0.151,-0.906s-0.302,-3.169 -0.302,-3.32s0.302,-0.302 0.302,-0.302l0.905,0c1.358,0 1.358,1.509 1.66,3.32c0.302,1.66 1.358,2.415 2.868,2.113c1.661,-0.301 1.812,-1.962 1.962,-2.415c0,-0.302 0,-0.604 -0.453,-0.754c-0.453,-0.151 -0.453,0.604 -0.604,1.056c-0.151,0.453 -0.302,0.453 -0.604,0.453c-0.302,-0.151 -0.302,-1.509 -0.453,-2.264c-0.15,-0.906 -0.453,-1.66 -1.509,-2.264c0,0 1.66,-1.056 1.811,-2.868c0,-1.207 -0.906,-2.264 -1.811,-2.565c-1.358,-0.604 -3.924,-0.302 -3.924,-0.302l-4.528,0.453s-0.604,0 -0.604,0.151l-0.148,0.151zm4.679,0.453c0.151,-0.15 0.906,-0.15 0.906,-0.15s1.208,-0.151 1.811,0.302c0.604,0.453 0.755,1.207 0.755,1.811c0,0.754 0.151,1.811 -1.962,2.113c-0.755,0.151 -0.906,0.151 -0.906,0.151c-0.302,0 -0.302,-0.151 -0.302,-0.302c-0.15,-0.151 -0.452,-3.32 -0.452,-3.32s-0.001,-0.454 0.15,-0.605zm25.959,-2.113l-0.15,0.453l0.15,0.151c0,0.15 0.152,0.15 0.152,0.15l0.451,0.151c0.152,0 0.604,0.302 0.906,0.905l-0.453,6.943s0,1.358 -0.754,1.811c-0.303,0.302 -0.756,0.302 -0.756,0.302s-0.15,0.151 -0.301,0.151l-0.15,0.151l0,0.453s0.15,0.151 0.15,0.302l0.453,0l3.471,0.302s0.303,0 0.303,-0.151l0.15,-0.151l0,-0.603c-0.15,-0.151 -0.303,-0.151 -0.303,-0.151l-0.451,-0.151s-0.303,-0.151 -0.605,-0.453c-0.15,-0.453 -0.15,-1.509 -0.15,-1.509l0.453,-5.433l0,-0.151c0.15,0 0.15,0.151 0.15,0.151l5.434,8.603s0.15,0.151 0.303,0.302c0.15,0.151 0.301,0.151 0.301,0.151l0.604,0l0.303,-0.302l0,-0.605l0.604,-8.301s0.15,-0.905 0.453,-1.358c0.15,-0.15 0.453,-0.302 0.453,-0.453l0.604,0c0.15,-0.151 0.15,-0.302 0.15,-0.302l0.15,-0.453s-0.15,-0.151 -0.15,-0.302c-0.15,-0.151 -0.453,-0.151 -0.453,-0.151l-3.17,-0.151s-0.301,0 -0.451,0.151l0,0.906l0.301,0s0.453,0.151 0.756,0.453c0.451,0.453 0.451,1.208 0.451,1.208l-0.451,4.377s0,0.302 -0.152,0.302l-0.301,-0.302l-4.227,-6.943s-0.303,-0.302 -0.303,-0.453c-0.15,0 -0.904,-0.151 -0.904,-0.151l-2.416,-0.151s-0.301,0 -0.451,0.151l-0.154,0.151zm13.434,1.056l-0.152,0.604l0,0.151c0.152,0.151 0.303,0.151 0.303,0.151l0.604,0.15s0.303,0.151 0.453,0.302l0,0.453l-1.51,8.603s-0.15,0.302 -0.301,0.453c-0.152,0.151 -0.906,0 -0.906,0l-0.301,0c-0.152,0 -0.303,0.151 -0.303,0.151l-0.15,0.453l0.15,0.301c0.15,0.151 0.453,0.151 0.453,0.151l8.754,1.66l0.604,0c0.15,0 0.301,-0.754 0.301,-0.754l0.756,-2.868s0.15,-0.453 0,-0.754c0,0 -0.152,-0.302 -0.604,-0.151c-0.303,0 -0.756,1.358 -1.66,1.962c-1.057,1.056 -1.812,1.056 -2.717,0.906c-1.057,-0.151 -1.359,-0.453 -1.359,-0.604c-0.15,-0.151 0,-0.604 0,-0.604l0.604,-3.169s0,-0.302 0.152,-0.453l0.301,0c0.453,0 0.906,0.453 1.057,0.906c0.15,0.604 0.15,1.358 0.303,1.811c0.15,0.302 0.604,0.302 0.754,0.151c0.15,0 0.303,-0.453 0.303,-0.453l0.754,-4.679s0.15,-0.151 0,-0.453c0,-0.302 -0.303,-0.302 -0.604,-0.302c-0.303,-0.151 -0.604,0.906 -1.207,1.509c-0.756,0.453 -1.057,0.302 -1.209,0.302c0,0 -0.15,0 -0.15,-0.151c-0.15,0 -0.15,-0.151 -0.15,-0.151l0.604,-3.471l0.301,-0.302l0.453,0s1.812,0.151 2.566,0.905c0.906,1.057 1.057,2.264 1.057,2.566s0,0.453 0.15,0.604c0,0.151 0.453,0.151 0.604,0.151c0.303,0 0.303,-0.755 0.303,-0.755l0.453,-3.018l0,-0.453c-0.152,-0.151 -1.209,-0.453 -1.209,-0.453l-8.148,-1.509c-0.004,0.001 -0.307,0.001 -0.457,0.151zm-20.98,4.075l0,0.453c0.152,0.302 0.453,0.302 0.453,0.302l0.303,0c0.453,0.151 0.604,0.604 0.604,0.754c0,0.302 -0.15,0.604 -0.15,0.604l-0.303,0.604s-0.15,0.151 -0.301,0.151c-0.152,0 -0.152,-0.151 -0.152,-0.151s-1.66,-2.415 -1.811,-2.717c0,-0.151 0,-0.302 0.151,-0.302c3.32,-1.509 2.113,-3.773 1.962,-4.075c-0.453,-0.754 -1.962,-1.811 -4.075,-0.905c-2.717,1.358 -1.057,5.282 -1.057,5.282s-3.32,1.509 -2.565,4.377c0.453,2.113 1.962,2.717 3.472,2.717c1.962,0 2.868,-1.056 3.169,-1.056c0.907,0.604 1.661,0.754 1.963,0.754c0.451,0 1.055,0.151 1.961,-0.754c0.906,-0.755 1.057,-1.812 1.057,-1.962c0,-0.302 -0.15,-0.302 -0.15,-0.302s-0.152,-0.151 -0.453,-0.151c-0.15,0 -0.303,0.754 -0.453,0.906c-0.15,0.302 -0.453,0.604 -1.057,0.452c-0.604,-0.15 -1.057,-0.905 -1.057,-0.905l0,-0.151c0,-0.151 0.152,-0.151 0.152,-0.151l0.904,-1.962s0.303,-0.755 0.604,-0.906c0.152,-0.151 0.604,-0.302 0.604,-0.302l0.303,0c0.15,-0.151 0.15,-0.302 0.15,-0.302l0,-0.302s0,-0.151 -0.15,-0.302l-3.626,0s-0.15,0 -0.301,0.151l-0.151,0.151zm-1.66,-4.527c0.755,0 1.208,0.604 1.208,1.509c-0.151,1.51 -1.208,1.812 -1.358,1.812c-0.151,0 -0.151,-0.151 -0.151,-0.151c-0.604,-0.754 -0.755,-1.509 -0.755,-1.962c-0.001,-1.208 0.754,-1.208 1.056,-1.208zm0.302,9.659c0,0.151 -0.302,0.453 -0.906,0.453c-1.056,0 -2.264,-1.811 -2.264,-3.019c-0.151,-0.905 0.453,-1.358 0.453,-1.358l0.151,-0.151l0.151,0.151c0.302,0.453 2.415,3.773 2.415,3.773l0,0.151zm33.355,-7.094s-0.15,0.302 -0.15,0.604c0,0.151 0.15,0.302 0.15,0.302s0.453,0.151 0.604,0.453c0.303,0.302 0.303,1.208 0.303,1.208l0.604,9.81l0,0.302l0.15,0.151l0.604,0.151l0.303,0l0.15,-0.302l3.471,-5.131s0.152,-0.151 0.303,-0.151l0,0.151l0.453,6.339l0,0.15c0.15,0.151 0.301,0.151 0.301,0.151l0.453,0.151l0.303,0c0.15,0 0.301,-0.302 0.301,-0.302l4.68,-7.546s0.604,-0.906 1.055,-1.208c0.453,-0.453 0.906,-0.453 0.906,-0.453s0.303,0.151 0.453,0s0.303,-0.604 0.303,-0.604l0,-0.302c-0.152,0 -0.453,-0.151 -0.453,-0.151l-3.17,-0.755s-0.303,-0.151 -0.453,0c-0.15,0 -0.301,0.151 -0.301,0.151l0,0.605c0.15,0.151 0.301,0.151 0.301,0.151l0.453,0.151c0.15,0.151 0.453,0.453 0.453,0.905c-0.152,0.604 -0.604,1.208 -0.604,1.208l-2.113,3.471l-0.303,0.302c-0.15,0 -0.301,-0.603 -0.301,-0.603l-0.154,-5.434l0,-0.453l0.756,0s0.15,0 0.15,-0.151l0.15,0l0.152,-0.604l0,-0.151c-0.152,-0.151 -0.453,-0.151 -0.453,-0.151l-3.773,-1.057l-0.453,0l-0.15,0.151l-0.15,0.452s-0.152,0.151 0.15,0.302l0.301,0.151l0.303,0.302c0.15,0.151 0.303,0.604 0.303,0.604l0,1.962l-2.113,3.169l-0.152,0c-0.15,0 -0.15,-0.151 -0.15,-0.151l-0.301,-5.735s0,-0.302 0.15,-0.453c0,-0.151 0.15,-0.151 0.15,-0.151l0.754,0l0.152,-0.452l0,-0.302c0,-0.151 -0.303,-0.302 -0.303,-0.302l-3.924,-0.906s-0.303,-0.151 -0.453,-0.151l-0.151,0.152zm25.205,13.584c-1.811,3.32 -0.303,6.942 2.414,8.301c2.416,1.357 6.34,0.754 8.15,-3.17c1.811,-4.075 -0.453,-7.396 -2.564,-8.301c-1.962,-0.905 -5.736,-1.056 -8,3.17zm7.547,-2.264c1.508,0.604 1.66,3.019 0,6.339c-1.812,3.623 -3.32,4.076 -4.68,3.32c-1.207,-0.604 -1.811,-2.868 -0.15,-6.188c1.961,-3.471 3.471,-4.074 4.83,-3.471zm-16.301,-6.641s-1.057,2.566 -1.207,3.169c-0.303,0.755 0,0.906 0.15,0.906c0.15,0.151 0.303,0.151 0.604,-0.453c1.51,-2.415 3.32,-2.113 3.623,-1.962c0.301,0.151 0.15,0.604 0.15,0.604l-3.02,8.302s-0.15,0.453 -0.451,0.453c-0.152,0.151 -0.453,0 -0.453,0l-0.604,-0.151l-0.152,0c-0.15,0 -0.301,0.151 -0.301,0.151l-0.15,0.453l0,0.151c0.15,0.151 0.301,0.151 0.301,0.151l4.83,1.812l0.303,0.15c0.15,0 0.301,-0.15 0.301,-0.15l0.15,-0.302l0,-0.302l-0.301,-0.302l-0.756,-0.302s-0.301,-0.15 -0.301,-0.452c0,-0.151 0.15,-0.453 0.15,-0.453l3.02,-8.301c0,-0.151 0.15,-0.453 0.754,-0.151c1.359,0.453 1.207,2.868 1.207,3.019c0,0.151 -0.15,0.905 -0.15,1.207c0.15,0.453 0.453,0.453 0.604,0.453c0.303,0 0.604,-0.754 0.604,-0.754l0.906,-3.169l0,-0.453c-0.15,-0.302 -0.303,-0.302 -0.303,-0.302l-8.754,-3.32s-0.15,-0.151 -0.301,-0.151a1.105,1.105 0 0 0 -0.453,0.449zm27.62,33.355s6.34,-11.471 7.094,-12.828c0.756,-1.359 1.51,-1.359 1.812,-1.359l0.904,0c0,0.152 0.303,0.152 0.604,0.152c0.152,-0.152 0.303,-0.152 0.303,-0.152l0.453,-0.754s0.15,-0.15 0,-0.453c0,-0.15 -0.453,-0.303 -0.453,-0.303l-4.98,-2.715s-0.15,-0.151 -0.303,-0.151c-0.301,0 -0.453,0.151 -0.453,0.151l-0.301,0.754l-0.15,0.303c0,0.15 0.301,0.301 0.301,0.301l0.604,0.453s0.453,0.303 0.604,1.207c0.152,0.906 -0.604,1.811 -0.604,1.811l-3.621,6.49s-0.152,0.152 -0.303,0.152l0,-0.303l-1.811,-13.735s0,-0.452 -0.152,-0.754c-0.15,-0.151 -0.754,-0.604 -0.754,-0.604s-4.227,-2.415 -4.227,-2.264c0,0 -0.301,-0.302 -0.604,-0.151l-0.15,0l-0.453,0.754s-0.15,0.151 0,0.453c0,0.302 0.604,0.453 0.906,0.905c0.453,0.453 0.604,1.358 0.604,1.51c0,0.302 -0.303,0.754 -0.303,0.754l-5.281,9.811s-0.604,1.057 -1.359,1.66c-0.451,0.301 -1.508,0.301 -1.66,0.301c-0.301,-0.15 -0.604,-0.301 -0.904,-0.301c-0.152,0 -0.303,0.15 -0.303,0.15l-0.301,0.756s-0.152,0.15 0,0.301c0,0.303 0.451,0.453 0.451,0.453l5.133,3.018l0.451,0c0.152,0 0.303,-0.15 0.303,-0.15l0.453,-0.754l0,-0.303c0,-0.15 -0.303,-0.15 -0.453,-0.301c-0.604,-0.453 -0.906,-1.207 -1.057,-1.963c0,-0.453 0.303,-1.207 0.303,-1.207l4.678,-8.604l0.303,-0.301c0.15,0 0.301,0.301 0.301,0.301l2.113,16.754s0.15,0.301 0.15,0.453l0.303,0.301l0.754,0.453s0.303,0.15 0.604,0.15c0.15,-0.149 0.451,-0.602 0.451,-0.602zm-110.631,-2.565l-28.374,0c11.319,-6.943 25.657,-11.17 28.374,-11.924l0,1.057c-16.904,5.281 -23.847,9.811 -23.847,9.811l23.847,0l0,1.056zm70.635,0l30.338,0c-11.471,-6.943 -25.658,-11.17 -30.488,-12.527l0,1.207c18.865,5.734 25.959,10.264 25.959,10.264l-25.809,0l0,1.056zm-30.034,-7.546l0,-10.868c-0.605,-0.604 -0.906,-2.264 -0.756,-2.264c0.15,-0.151 4.227,-0.453 4.98,-0.302c0.906,0 1.51,0.453 1.812,0.453c0.301,0 3.018,0.151 4.074,0.453c0.906,0.302 1.057,-0.15 1.359,0.151c0.15,0.302 0.451,1.962 0.15,2.565c-0.303,0.604 -1.207,0.755 -2.566,0.755c-1.51,-0.151 -2.566,-0.453 -2.566,1.056c0,0 1.812,-0.905 4.377,-0.905c1.51,0 3.773,-0.302 3.924,-0.906c0.303,-0.604 0.303,-1.509 0.303,-1.509c0,-0.151 0.15,0 0.303,0.15c0.301,0.302 0.604,0.755 0.453,1.66c-0.303,0.755 -1.359,1.962 -3.473,1.962c-0.604,0 -0.604,0.15 -0.754,0.303c0,0.15 0,1.207 -1.66,1.658c-0.604,0.152 -0.453,0.453 -0.453,0.605c0,0.15 1.963,7.848 1.963,7.848c1.055,-0.15 6.338,-3.02 7.695,-3.623c0.453,-0.15 2.717,0.152 3.322,0.152c0.604,0 1.357,-0.152 1.66,-0.152c0.301,0.152 0.904,0.453 1.057,0.604c0.15,0.152 1.055,0.303 1.055,0.906s-0.15,0.604 -0.15,0.604c0.604,1.207 -0.301,2.264 -0.301,2.264c0,1.209 -1.057,2.416 -2.113,2.113c-0.756,-0.15 0.15,-0.754 0.15,-0.754c-2.414,0.453 -2.566,-0.604 -2.566,-0.604a12.956,12.956 0 0 1 -1.508,-0.604c-2.266,0.904 -5.586,4.225 -5.586,4.225c1.359,0.453 4.68,-0.451 4.98,-0.301c0.303,0.15 3.02,1.357 3.473,1.357c0.453,0.152 1.811,0.303 1.811,0.453c0.15,0.15 0.906,1.057 1.057,1.207c0.15,0.152 -0.15,1.057 -0.15,1.057c0.301,1.207 -1.057,2.264 -1.057,2.264c-0.303,1.359 -1.51,1.66 -2.113,1.51c-0.604,0 0,-0.453 -0.15,-0.604c-0.152,-0.15 -0.906,0 -1.51,-0.453c-0.754,-0.604 -0.906,-1.207 -0.906,-1.207c-0.904,0 -1.057,-1.057 -1.057,-1.057c-0.604,0 -1.057,0.15 -1.057,0.15c-2.564,0.453 -5.885,1.66 -5.885,1.66s-2.113,0.756 -3.773,0.756c-1.811,0 -2.867,-0.303 -2.867,-0.303c-5.434,1.66 -7.697,1.359 -7.697,1.359s-4.831,0.15 -9.208,-2.113c-3.019,-1.811 -7.546,-5.133 -7.546,-5.133c0.453,7.396 -6.641,7.547 -7.245,7.547c-8.301,-0.604 -8.301,-8.904 -8.301,-8.904c0.151,-4.83 4.981,-7.547 4.981,-7.547c-1.509,-1.057 -2.717,-0.904 -3.924,-1.057c-1.208,-0.301 -3.32,-0.604 -3.773,-0.904c-0.151,-0.152 2.566,-2.416 4.981,-2.113c0.151,0 -1.358,-1.811 -0.755,-2.264c0.302,-0.303 2.264,-0.152 2.566,0c0.302,0.301 -0.302,-0.906 0.906,-2.566c0.754,-0.906 2.415,-2.264 2.565,-2.264c0.302,0 -0.754,4.075 -0.754,4.678c0,0.605 0,2.266 1.208,3.623c1.207,1.359 1.66,1.963 1.962,1.963s1.962,-0.303 2.565,-0.152c0.453,0.152 -2.867,-4.678 -2.867,-12.225c0,0 1.057,0.302 2.264,0.302c0.755,-0.151 14.338,0 14.338,0c7.698,-0.151 7.698,6.489 7.698,7.396c0,1.51 -1.51,2.717 -1.51,2.867c0,0 0.453,2.113 2.264,3.17c0.452,0.305 0.301,-0.148 0.301,-0.148zm-26.262,9.054c0.906,0 1.358,-0.904 1.358,-1.357s-0.302,-1.51 -0.302,-1.51s-1.962,0.15 -1.962,1.51c0,1.357 0.755,1.357 0.906,1.357zm-0.453,5.586c2.868,0 5.735,-1.51 5.735,-5.283c0,-1.66 -0.604,-2.264 -0.604,-2.264c-2.113,-1.359 -3.17,-0.906 -3.17,-0.906a4.22,4.22 0 0 1 0.302,1.66c0,0.303 -0.604,1.811 -1.962,1.811c-1.509,0 -1.66,-1.357 -1.66,-2.111c0,-0.756 1.207,-2.113 3.169,-2.113s5.131,1.811 7.094,3.471c2.113,1.811 7.094,5.434 11.47,5.736c4.377,0.301 3.17,0.451 5.584,0.15c2.264,-0.15 4.227,-0.604 4.227,-0.604c-1.51,0 -1.66,-0.604 -1.963,-1.359c-0.301,-0.904 -0.453,-1.811 -0.604,-2.113c-0.15,-0.15 0.303,0 0.604,0.453c0.152,0.453 0.604,2.113 0.906,2.264c0.453,0.303 1.207,0 1.66,0.152c0.453,0 2.566,0.451 3.471,0.451c1.812,0 4.377,-0.754 6.49,-1.508c1.963,-0.604 3.471,-0.906 4.227,-0.906c0.301,0 0.604,0.15 0.904,0.754c0.152,0.152 0.453,-0.15 0.303,-0.451c0,0 0.303,-0.152 0.453,0.15c0.301,0.301 0.301,0.604 0.301,0.904c0,0.453 -0.15,0.756 0.303,0.906c0.453,0.303 1.51,0.756 2.113,0c0.604,-0.604 0.453,-1.207 0.453,-1.207c-1.812,-0.754 -2.717,-1.66 -2.717,-1.811c-0.152,-0.152 -0.453,-1.209 -0.152,-1.057c0.303,0.15 0.303,0.301 0.453,0.453c0.152,0.15 1.207,1.055 1.66,1.357c0.303,0.15 1.057,0.906 1.207,0.906c0.152,-0.152 0.906,-0.906 0.756,-1.209c-0.303,-0.301 -0.604,-0.15 -0.906,-0.301c-0.15,0 -2.717,-1.057 -2.867,-1.359c-0.15,-0.15 -0.303,-1.057 -0.604,-1.207c-0.303,-0.15 -0.453,-0.301 -1.057,-0.301c-0.754,0 -3.924,0.604 -6.037,0.604s-4.227,0 -4.377,-0.152c-0.15,-0.15 0,-0.754 0.15,-0.904c0.152,-0.15 0.303,0.604 0.303,0.604c0.15,0 2.264,0.301 1.961,-0.754c0,0 -0.301,0.301 -1.057,0.301c-0.754,0 -1.207,-0.754 -1.207,-0.754c-1.66,2.113 -3.018,0 -3.018,0c-1.812,1.961 -3.02,-0.303 -3.02,-0.303c-1.51,2.113 -3.018,-0.453 -3.018,-0.453c-3.32,2.717 -5.434,2.717 -7.698,2.717c-2.415,0.152 -6.792,-1.057 -9.509,-3.471c-1.358,-1.207 -2.264,-2.414 -3.169,-3.773c-0.754,-1.357 -1.208,-2.264 -1.208,-2.264c-3.622,-0.604 -3.169,-0.303 -4.226,-0.303c-1.056,0.152 -8.301,0.906 -8.301,8.15c0,6.34 6.188,8.301 7.999,8c1.358,0 7.546,-1.057 5.886,-7.547c0,0 1.208,6.793 -6.037,7.094c-3.17,0.303 -7.396,-2.867 -7.396,-8.15c0,-0.15 0.151,-0.453 0.151,0c0.004,0.604 0.457,7.85 7.249,7.85zm49.504,0.151c-0.15,0.301 -0.301,0.604 0.303,0.453c0.451,-0.303 0.754,-1.51 0.604,-1.51c-0.303,0 -0.756,0.754 -0.907,1.057zm1.963,-3.321c0.15,0.15 0.301,-0.453 0.15,-0.453c-0.15,-0.15 -0.302,0.301 -0.15,0.453zm-0.756,1.811c0,0.15 0.303,0.303 0.453,0c0.303,-0.15 0.453,-1.057 0.303,-1.057c-0.302,0.151 -0.756,0.906 -0.756,1.057zm0.153,-2.414c0.15,-0.152 0.301,-1.057 0.15,-1.057c-1.057,0 -3.32,-0.756 -3.471,-0.906c0,-0.15 0,0 0.15,0.15c0.15,0.152 0.453,0.303 0.754,0.453c0.453,0.453 1.359,1.207 2.113,1.207a0.467,0.467 0 0 0 0.304,0.153zm-12.377,-6.19l0,2.869s0,0.15 0.15,0.15s1.812,-1.207 2.113,-1.51c0.453,-0.303 3.02,-2.264 3.924,-2.867c0.453,-0.15 1.057,-0.453 1.359,-0.453c0.453,0 0.301,0.15 0.15,0.303c0,0 -0.453,0 -0.754,0.15c-0.303,0.15 -0.756,0.453 -0.906,0.604c-0.906,0.453 -2.867,2.113 -3.773,2.717c-0.754,0.604 -1.66,1.357 -1.51,1.357c0.303,0.152 1.66,-1.057 2.717,-1.961c1.057,-0.906 3.02,-2.264 3.773,-2.566l1.057,0c0.303,0 0.604,0.15 0.756,0.15c0.15,0 0.301,-0.301 0.301,-0.301c0.15,-0.15 0.303,-0.15 0.453,0c0.301,0.15 0.301,0.453 0.453,0.604c0,0.15 -0.604,0.604 0.604,0.604c1.357,0 1.811,-1.207 1.811,-1.357c0,-0.152 -0.15,-0.453 -0.301,-0.605l-1.359,0c-0.603,0 -0.754,-0.15 -1.357,-0.301c-0.453,-0.303 -0.303,-0.906 -0.303,-0.906c0,-0.15 0.303,0 0.604,0.303c0.453,0.301 1.207,0.301 1.811,0.301c0.756,0.152 0.453,0.303 0.756,0.303c0.301,0 0.453,-0.15 0.453,-0.604s-0.152,-0.604 -0.453,-0.604c-0.453,0 -0.604,0.15 -1.359,0.15c-0.15,0 -1.207,-0.15 -1.66,-0.303c-0.451,0 -0.451,-0.15 -0.604,-0.604c-0.15,-0.453 -0.15,-0.453 0.303,-0.15s2.264,0.453 2.867,0.453c0.453,0.15 0.754,-0.303 0.754,-0.303c0,-0.15 -0.301,-0.604 -0.604,-0.604l-4.678,0c-0.152,0 -0.303,0 -0.453,0.15c0,0 -1.66,0.756 -2.867,1.359c-1.359,0.754 -3.773,1.811 -3.926,1.811c-0.15,0.152 -0.301,0.152 -0.451,0.303c-0.002,0.151 0.149,1.058 0.149,1.358zm12.828,-0.453s-0.301,0.906 0,0.605c0.756,-0.453 0.756,-1.209 0.453,-1.209c-0.15,0.001 -0.301,0.454 -0.453,0.604zm0.453,-1.508c-0.15,0.301 0.152,0.453 0.303,0.453s0.301,-0.152 0.453,-0.605c0,-0.301 -0.152,-0.904 -0.303,-0.904c-0.301,0.301 -0.15,0.754 -0.453,1.056zm0.604,-1.509c0.152,-0.453 0,-0.754 -0.15,-0.604c-0.302,0.301 0.15,0.904 0.15,0.604zm-54.184,6.187s0.151,-2.414 3.773,-2.564c3.019,0 7.848,4.225 9.66,5.434c1.811,1.207 6.339,5.281 15.998,3.771c-10.263,1.057 -14.187,-2.867 -15.998,-4.074c-1.812,-1.207 -6.641,-5.434 -9.66,-5.434c-3.621,0.15 -3.773,2.867 -3.773,2.867zm17.811,-17.96l1.509,0s2.717,0.151 2.717,-0.302c0,-0.604 -1.057,-0.604 -1.057,-0.604l-1.66,0s-0.604,-0.151 -0.453,-0.151c0.302,0 0.604,-0.151 0.604,-0.151l1.812,0c0.151,0 0.151,-0.151 0.151,-0.151l0,-0.754c0,-0.151 -0.453,-0.151 -0.453,-0.151l-2.566,0c-0.754,0 -2.264,0.453 -2.264,1.208s1.66,1.056 1.66,1.056zm0.301,2.415l1.661,0s2.113,0.151 2.264,-0.15c0,-0.604 -0.755,-0.604 -0.755,-0.604l-1.509,0s-0.754,-0.151 -0.604,-0.151c0.301,0 0.604,-0.151 0.604,-0.151l1.811,0c0.151,0 0.151,-0.302 0.151,-0.302s0.302,-0.302 0.302,-0.452c0,-0.151 -0.755,-0.302 -0.755,-0.302s-1.812,0.151 -2.566,0.151s-2.264,0.302 -2.264,1.057c0,0.602 1.66,0.904 1.66,0.904zm1.66,4.981l1.208,0s2.114,0.15 2.264,-0.303c0,-0.604 -0.755,-0.604 -0.755,-0.604l-1.509,0s-0.755,-0.15 -0.453,-0.15l1.66,0c0.151,0 0.604,-0.15 0.604,-0.15s0.303,-0.303 0.303,-0.453s-0.755,-0.303 -0.755,-0.303l-2.415,0c-0.754,0 -2.264,0.152 -2.264,0.906s2.112,1.057 2.112,1.057zm-1.056,-2.416l1.358,0s2.415,0 2.415,-0.15c0,-0.604 -0.754,-0.754 -0.754,-0.754l-1.66,0s-0.754,-0.15 -0.453,-0.15c0.151,0 0.453,-0.152 0.453,-0.152l1.812,0c0.151,0 0.301,-0.15 0.301,-0.15s0.302,-0.301 0.302,-0.604c0,-0.15 -0.905,-0.15 -0.905,-0.15l-2.565,0c-0.755,0 -1.962,0.301 -1.962,1.057c-0.002,0.752 1.658,1.053 1.658,1.053zm2.113,4.679l1.057,0s1.962,0.15 1.962,-0.301c0.15,-0.453 -0.906,-0.453 -0.906,-0.453l-1.056,0s-0.604,-0.15 -0.453,-0.15c0.302,0 0.604,-0.152 0.604,-0.152l0.754,0c0.15,0 0.604,-0.15 0.604,-0.15s0.303,-0.15 0.303,-0.453c0,-0.15 -0.303,-0.303 -0.303,-0.303l-2.415,0c-0.755,0 -2.264,0.152 -2.264,0.906c0,0.756 2.113,1.056 2.113,1.056zm1.208,2.414l1.208,0s1.811,0.152 1.961,-0.301c0,-0.453 -1.055,-0.453 -1.055,-0.453l-0.906,0s-0.755,-0.15 -0.453,-0.15c0.15,0 0.453,-0.15 0.453,-0.15l0.754,0c0.152,0 0.453,-0.152 0.453,-0.152s0.303,-0.15 0.303,-0.453c0,-0.15 -0.303,-0.301 -0.303,-0.301l-2.264,0c-0.754,0 -2.264,0.15 -2.264,0.906c-0.001,0.754 2.113,1.054 2.113,1.054zm3.924,4.53l1.057,0s0.904,0 0.904,-0.453c0.152,-0.604 -0.604,-0.303 -0.604,-0.303l-0.453,0s-0.754,-0.15 -0.604,-0.15c0.303,0 0.604,-0.15 0.604,-0.15l0.756,0c0.151,0 0.453,-0.15 0.453,-0.15s0.301,-0.152 0.301,-0.453c0,-0.152 -0.453,-0.152 -0.453,-0.152l-2.264,0c-0.604,0 -1.961,0 -1.961,0.605c0,0.753 2.264,1.206 2.264,1.206zm-2.264,-2.114l1.207,0s1.961,0.15 1.961,-0.303c0.152,-0.604 -0.904,-0.604 -0.904,-0.604l-1.057,0s-0.604,-0.15 -0.453,-0.15s0.604,-0.15 0.604,-0.15l1.208,0s0.303,-0.303 0.303,-0.453s-0.453,-0.303 -0.453,-0.303l-2.264,0c-0.604,0 -2.415,0.152 -2.415,0.906s2.263,1.057 2.263,1.057zm-19.621,-16.451s-0.453,0.151 -0.453,0.453c0,0.453 0.151,1.66 2.113,1.66l9.66,0s0.452,0 0.603,-0.151c0.151,-0.151 -0.151,-0.754 -0.905,-0.754l-7.698,0l0,-0.151l6.943,-0.302s1.358,0.151 1.509,-0.604c0,-0.453 -0.452,-0.302 -0.754,-0.302l-6.339,0s-4.528,0.151 -4.679,0.151zm1.509,2.566c-0.906,-0.151 -1.51,-0.302 -1.51,-0.302c0,0.302 0,2.264 2.113,2.264l9.508,0s0.604,0.151 0.755,0c0.151,-0.151 -0.302,-0.754 -1.056,-0.754l-7.698,0l0.151,-0.151l6.943,-0.302s1.207,0.151 1.358,-0.754c0.151,-0.151 -0.453,-0.151 -0.906,-0.151l-4.528,0l-5.13,0.15zm1.057,2.415c-1.208,0 -1.962,-0.302 -1.962,-0.302c0,0.302 0.151,2.415 2.113,2.415l9.66,0s0.453,0 0.604,-0.152c0.151,0 -0.302,-0.754 -1.057,-0.754c-0.754,0 -7.792,-12.15 -6.792,-0.15l-0.151,-0.15l6.641,-0.152s0.906,0.152 1.208,-0.604c0,-0.15 -0.604,-0.15 -1.057,-0.15l-9.207,0l0,-0.001zm0.604,2.414c-1.057,0 -1.962,-0.301 -1.962,-0.301c0,0.453 0.302,2.414 2.264,2.414l9.659,0s0.453,0 0.604,-0.15s-0.453,-0.906 -1.208,-0.906c-0.755,0 -7.245,0.152 -7.245,0.152l-0.151,-0.152l7.245,-0.301s0.905,0.15 1.208,-0.604c0,-0.152 -0.906,-0.152 -1.208,-0.152l-9.206,0zm1.056,2.416c-1.057,0 -2.113,-0.303 -2.113,-0.303c0,0.453 0.453,2.416 2.415,2.416l9.508,0s0.604,0 0.755,-0.152c0.151,-0.15 -0.453,-0.904 -1.207,-0.904l-7.849,0l7.546,-0.303s0.906,0.152 1.208,-0.604c0,-0.15 -0.754,-0.15 -1.208,-0.15l-9.055,0zm1.207,2.564c-1.057,-0.15 -2.113,-0.15 -2.113,-0.15c0,0.303 0.755,2.113 2.717,2.113c2.113,0.15 9.207,0 9.207,0s0.604,-0.15 0.754,-0.15c0.151,-0.152 -0.453,-0.906 -1.208,-0.906s-7.697,0.15 -7.697,0.15l-0.151,-0.15l7.546,-0.301s0.905,0.301 1.208,-0.605c0,-0.15 -0.754,-0.15 -1.208,-0.15l-4.226,0l-4.829,0.149zm1.359,2.416c-1.057,0 -2.113,-0.303 -2.113,-0.303c0,0.453 0.755,1.963 2.717,1.963c2.113,0.15 9.207,0.15 9.207,0.15s0.905,-0.15 1.056,-0.301c0,-0.152 -0.754,-0.604 -1.509,-0.604l-7.848,0l-0.151,-0.152l7.697,-0.15s0.755,0.303 1.057,-0.604l-10.113,0l0,0.001zm2.112,2.114c-1.056,0 -2.264,-0.152 -2.264,-0.152c0,0.453 1.509,1.963 4.075,2.113c2.113,0 7.999,-0.15 7.999,-0.15s1.359,-0.15 1.51,-0.303c0,-0.15 -1.057,-0.604 -1.812,-0.604l-8.15,0l8,-0.451s0.603,0.15 0.755,-0.303c0,-0.15 -0.605,-0.15 -1.057,-0.15l-9.056,0zm2.868,2.263l-2.264,0c0,0.301 3.924,1.961 7.244,1.811c1.66,0 2.716,-0.15 3.169,-0.301c0.453,-0.303 1.207,-0.604 0.453,-0.604l-7.245,0l7.999,-0.303s0.605,0.15 0.756,-0.453c0.15,-0.15 -0.604,-0.15 -0.906,-0.15l-9.206,0zm7.849,-16.904c0,0.151 -1.359,0.604 -1.359,1.057c0.15,0.453 1.509,1.056 1.509,1.207c0,0.151 -1.207,0.604 -1.207,1.207c0.15,0.605 1.66,1.207 1.66,1.359c0,0.15 -1.207,0.604 -1.057,1.207c0.15,0.453 1.51,0.754 1.51,1.057c0.15,0.15 -0.756,0.604 -0.604,1.207c0.15,0.756 1.66,0.906 1.811,1.207c0.15,0.152 -0.906,0.756 -0.756,1.209c0.303,0.451 2.266,1.055 2.416,1.055c0.15,0.152 0.15,0.303 0,0.453c-0.15,0 -0.756,0.453 -0.756,0.756c0.152,0.301 1.057,0.754 1.359,0.754s0.453,-0.15 0.453,-0.15l0,-1.51s0,-0.453 -0.303,-0.604c-2.717,-1.66 -3.17,-4.527 -3.17,-4.527s1.66,-1.963 1.51,-3.32c-0.604,-5.283 -4.376,-6.038 -4.376,-5.887c-0.754,0.905 1.36,2.112 1.36,2.263zm16.752,2.113c1.057,0 1.963,0 2.717,-0.453c0.756,-0.302 0.756,-1.208 0.756,-1.208s-0.756,1.358 -3.17,1.208c-1.51,-0.151 -3.471,0.453 -3.471,0.453l3.168,0zm-46.938,5.281c-0.151,0.152 0.906,-0.301 1.66,-0.301c0.604,0 2.113,0.15 2.264,0c0,-0.15 -0.906,-0.303 -1.66,-0.303c-0.755,0.001 -1.509,0.001 -2.264,0.604zm38.487,16c0.15,0.15 1.961,0.453 4.074,0.453s4.377,-0.756 5.133,-1.057c0.904,-0.303 4.074,-1.057 4.527,-1.209c0.604,-0.15 0.604,-0.301 0.301,-0.301c-0.451,0 -2.414,0.604 -3.471,0.906c-3.773,1.207 -5.281,1.357 -6.49,1.357c-1.057,0 -4.074,-0.303 -4.074,-0.303s-0.15,0.154 0,0.154zm-2.566,-24.752c0.15,0.151 0.453,0 0.453,0.604c0,0.754 0.906,2.867 1.66,3.774c0.604,1.057 3.02,1.057 5.434,1.057c2.566,-0.152 2.566,-0.303 2.717,-0.756c0.15,-0.604 -1.811,-0.301 -1.811,-0.301l-2.266,0c-0.451,0 -1.357,0 -1.207,-0.756c0.303,-1.961 1.51,-1.66 1.51,-1.66l0.303,-0.453l0.15,0l0.15,0.151l0.15,0.302l0.756,0l0.15,0.15l0.453,0l0.301,-0.452l0.152,0l0.15,0.452l0.453,0l0.15,-0.604l0.15,0l0.303,0.302l0.15,-0.302l0,-1.057c-0.15,-0.15 -0.301,-0.453 -0.604,-0.604c-0.301,-0.151 -0.906,-0.302 -1.357,-0.453c-0.453,-0.151 -2.717,-0.302 -3.17,-0.302c-0.453,-0.15 -1.207,-0.453 -1.66,-0.604c-0.303,0 -1.51,0.151 -2.113,0.151s-2.566,0 -2.566,0.151c-0.148,0.606 0.908,1.21 1.059,1.21zm8.15,1.811l0,-0.302l-0.301,0.151l0,0.15l0.301,0l0,0.001zm0.15,-0.604l0.152,0.151l0.301,-0.151l-0.301,-0.151l-0.152,0.151zm-1.056,0l0.303,0.151l0.15,-0.151l-0.15,-0.151l-0.303,0l0,0.151zm2.265,0l-0.152,0l-0.15,0.151l0.303,0l0,-0.151l-0.001,0zm-6.339,-0.905c0.15,0 0.604,0.604 1.057,0.604c0.604,0 1.057,-0.604 1.207,-0.604l0.604,-0.151c0,-0.151 -0.453,-0.302 -0.754,-0.453l-0.756,0c-0.15,0 -0.604,-0.151 -0.604,-0.151l-0.904,0c-0.303,0 -0.453,0.151 -0.453,0.302c-0.001,0.453 0.452,0.301 0.603,0.453zm0.906,0.15l0.301,0l0,-0.15l-0.15,0l-0.151,0.15zm-4.227,1.359l0,1.208s0.15,0.755 0.906,0.755c0.301,0 0.301,-0.151 0.15,-0.302l-0.453,-0.453l0,-0.302s-0.15,0 -0.303,0.151l-0.15,-0.302l0,-0.755l-0.15,0zm0,2.566l0,2.264s0,1.057 1.207,0.904c1.057,0 0.906,-0.754 0.906,-0.754l0.15,0s0,1.057 1.207,1.057c1.057,0 0.906,-0.754 0.906,-0.754l0.301,0s0,0.904 1.209,0.904c0.754,0.15 0.754,-0.904 0.754,-0.904l0.15,0l0.303,0.451s0,0.604 0.754,0.604c0.756,0 0.604,-0.451 0.604,-0.451l0,-0.453l-0.15,0c-0.15,0 -0.453,0.301 -0.604,0.301s0,-0.301 -0.15,-0.301c-0.152,0 -0.152,0.15 -0.303,0.15c0,0 -0.301,-0.15 -0.301,-1.057l-0.303,0s-0.15,-0.303 -0.15,0.303c0,0.604 -0.152,0.453 -0.152,0.453l-0.451,-0.303s0,0.754 -0.152,0.754c-0.15,0 -0.301,-0.604 -0.301,-0.604s0,-0.15 -0.15,0c0,0 -0.152,0.152 -0.303,0.152s0,-0.906 -0.453,-0.906l-0.15,0l-0.15,0.301l0,0.453s0,0.152 -0.152,0.152c-0.301,0 -0.301,-0.303 -0.301,-0.303s-0.15,0.453 -0.303,0.453c-0.15,0 -0.15,-0.303 -0.15,-0.303l-0.15,-0.453c-0.152,0 -0.152,0.152 -0.152,0.152l-0.15,0l-0.15,-0.303s-0.15,-0.15 -0.15,-0.604s-0.756,-0.906 -0.756,-0.906l0,1.207s-0.15,0.303 -0.301,0.303c-0.152,0 -0.152,-0.303 -0.152,-0.303l-0.15,0s0,0.756 -0.15,0.756c-0.303,0 -0.303,-0.604 -0.303,-0.604l-0.15,-0.152s0,0.303 -0.15,0.303c-0.152,0 -0.303,-0.604 -0.303,-0.604l0,-1.357l-0.155,0l0,0.002zm0,3.772l0,1.812s0,1.057 1.057,1.057s1.057,-0.906 1.057,-0.906l0.15,0s0,1.057 1.359,0.906c1.055,0 0.904,-0.604 0.904,-0.604l0.303,-0.152s0.15,0.906 1.357,1.057c0.756,0 0.906,-1.057 0.906,-1.057l0.301,0.152l0.152,0.451s0,0.303 0.754,0.303s0.754,-0.303 0.754,-0.303l0,-0.754l-0.451,0c-0.152,0 -0.152,0.453 -0.152,0.453c-0.15,0 -0.301,-0.453 -0.451,-0.453c-0.152,0 -0.152,0.15 -0.303,0.15c0,0 -0.303,-0.451 -0.303,-1.357c0,-0.152 -0.604,-0.453 -0.604,-0.453s-0.15,0 0,0.453l0,1.207l-0.453,0s0,0.604 -0.15,0.604c-0.301,0 -0.453,-1.057 -0.453,-1.057l0,-0.15c-0.15,0.15 -0.15,0.754 -0.301,0.754c-0.303,0 -0.303,-2.113 -0.756,-2.113l-0.15,0.152l-0.301,0.301l0.15,0.756l0,0.604s0,0.15 -0.15,0.15c-0.303,-0.15 -0.303,-0.453 -0.303,-0.453l-0.15,0s0,0.906 -0.15,0.906c-0.152,0 -0.152,-0.303 -0.152,-0.303s-0.15,-0.451 -0.301,-0.451l0,0.15l-0.303,0l0,-0.303s-0.15,-0.604 -0.15,-1.207c0,-0.453 -0.756,-0.754 -0.906,-0.303l0,1.359s0,0.303 -0.15,0.303s-0.15,-0.152 -0.15,-0.152l-0.303,0s0,0.756 -0.15,0.756c-0.303,0 -0.15,-1.51 -0.15,-1.51l-0.303,0.15s0,0.604 -0.15,0.604c-0.303,0 -0.152,-0.604 -0.152,-0.604l-0.15,-0.906l-0.153,0l0,0.001zm0.151,3.623l0,1.66s-0.15,0.906 1.057,0.906c1.057,0 0.906,-0.906 0.906,-0.906l0.301,0s-0.15,1.359 1.209,1.359c1.207,-0.152 1.357,-1.057 1.357,-1.057l0.15,0s0,1.207 1.207,1.207c1.209,0 1.209,-1.207 1.209,-1.207l0.301,0.15l0.152,0.453s0.15,0.301 0.904,0.301c0.756,0 0.906,-0.453 0.906,-0.453l-0.15,-1.057s-0.152,0.152 -0.303,0.152s-0.303,-0.152 -0.303,-0.152c-0.15,0 0,0.906 -0.15,0.906c-0.301,0 -0.301,-0.754 -0.453,-0.754c0,0 0.152,-0.756 0,-0.756c-0.15,0 0,1.057 -0.301,0.906c-0.15,0 -0.15,-0.754 -0.15,-1.057c0,-0.301 -0.605,-0.754 -0.756,-0.754s-0.301,0 -0.301,0.754c0,0.604 0.15,1.207 0.15,1.207l-0.453,0s-0.15,0.453 -0.303,0.453c-0.15,0 -0.301,-0.754 -0.301,-0.754s0,-0.152 -0.15,0l-0.152,0.15c-0.451,0.15 -0.15,-1.963 -0.604,-1.963l-0.453,-0.15l-0.301,0.453l0,1.51s0.15,0.301 -0.15,0.15c-0.303,0 -0.152,-1.057 -0.152,-1.057l-0.15,0s0,1.66 -0.301,1.66c-0.152,0 -0.152,-0.453 -0.152,-0.453s0,-0.754 -0.15,-0.754l-0.15,0.453l-0.303,0l0,-0.152l0,-1.207c0,-0.453 -0.754,-1.057 -1.057,-0.301l0,1.207s-0.15,0.301 -0.301,0.301c-0.152,0 -0.152,-1.055 -0.152,-1.055l-0.15,0s0,1.508 -0.301,1.508c-0.303,0 -0.152,-0.754 -0.152,-0.754l-0.15,0s0,0.15 -0.303,0.15c-0.15,0 0,-0.453 0,-0.453l0,-0.754l-0.151,0l0,0.004zm-0.301,4.377l-0.604,1.207s0,1.057 1.207,1.057c1.357,0 1.508,-1.357 1.508,-1.357l0.152,0.15s0,1.51 1.51,1.51c1.207,0 1.357,-1.209 1.357,-1.209l0.15,0s0,1.51 1.207,1.359c1.662,0 1.51,-1.359 1.51,-1.359l0.152,0l0.15,0.605s0.453,0.604 1.207,0.604s1.057,-0.756 1.057,-0.756s-0.15,-1.961 -0.303,-1.961c-0.15,0 0,1.057 -0.15,1.057c-0.301,0 -0.453,-1.057 -0.453,-1.057c-0.15,0 -0.15,1.811 -0.15,1.811c-0.453,0 -0.303,-1.057 -0.453,-1.057s0.15,-0.754 -0.15,-0.754c-0.15,0 0,1.057 -0.303,1.057c-0.301,0 -0.15,-1.359 -0.15,-1.51c0,-0.303 -0.453,-0.754 -0.604,-0.754s-0.453,0.451 -0.453,1.207l0,1.207l-0.453,0s-0.15,0.604 -0.301,0.604c-0.152,0 -0.303,-1.66 -0.303,-1.66s0,-0.15 -0.15,0c-0.15,0 0.15,1.207 -0.303,1.207c-0.301,0 0,-2.264 -0.604,-2.264l-0.301,0l-0.303,0.453l0,0.604l-0.15,0.604s0,0.303 -0.15,0.303c-0.303,-0.152 -0.303,-0.756 -0.303,-0.756s0,1.51 -0.301,1.51c-0.152,0 -0.152,-0.604 -0.152,-0.604l-0.15,-1.207c-0.15,0 -0.303,0.754 -0.303,0.754l-0.15,0l-0.15,-0.453s0.15,-0.604 0,-1.057c0,-0.604 -0.756,-0.754 -0.906,-0.15c-0.15,0.15 -0.15,1.057 -0.15,1.057s-0.303,0.604 -0.453,0.604s0,-1.207 0,-1.207l-0.15,0s-0.15,1.66 -0.453,1.66c-0.15,0 0,-1.66 0,-1.66l-0.303,0.15s0.152,0.906 -0.15,0.906c-0.15,0 -0.15,-0.303 -0.15,-0.303l0,-0.15l-0.152,0l0,-0.002zm-27.923,-5.584s0.15,0 0,-0.15c-0.151,-0.152 -1.509,-1.662 -1.962,-3.02c-0.453,-1.51 0.151,-4.377 0.302,-4.528c0,-0.302 0.151,-0.151 0.151,0c-0.906,4.831 0.754,6.188 1.961,7.395l0.453,0s-2.264,-1.811 -2.415,-4.227c0,-1.508 0.754,-4.979 0.754,-4.979c-3.471,2.415 -1.962,5.132 -1.962,5.132c0.15,0.15 0.15,0.301 0,0.301c-0.151,0 -0.906,-0.453 -1.509,-0.754c-0.755,-0.301 -1.509,-0.453 -1.509,-0.301c-0.151,0.754 1.358,2.264 1.509,2.414s0.151,0.15 0,0.15c-0.604,0.15 -0.906,0 -2.415,0c-1.208,0.15 -2.717,0.906 -2.566,1.057c0.453,0.453 3.472,0.756 4.679,0.906c1.208,0.301 2.415,1.207 2.415,1.207s0.605,-0.302 2.114,-0.603z"/>
 </g>
</svg>